/* XPM */
static char *_46b91ea9cd44181f1c5c580d33e3fcaCu57MX2VLREfTazJ[] = {
/* columns rows colors chars-per-pixel */
"64 64 196 2 ",
"   c #010201",
".  c #0B0100",
"X  c #000B00",
"o  c #0C0A00",
"O  c #030209",
"+  c #030A09",
"@  c #120100",
"#  c #180000",
"$  c #001300",
"%  c #001A00",
"&  c #050310",
"*  c #002100",
"=  c #3EBC2A",
"-  c #48AB3E",
";  c #4CB23B",
":  c #45BF39",
">  c #56BA3E",
",  c #4CC23A",
"<  c #669F59",
"1  c #6A9D5C",
"2  c #4EAD42",
"3  c #4EAE4A",
"4  c #54AB4D",
"5  c #5AAD4E",
"6  c #4DB343",
"7  c #4FB748",
"8  c #51B447",
"9  c #53B944",
"0  c #53B34A",
"q  c #59B34D",
"w  c #51B948",
"e  c #57A653",
"r  c #5CA657",
"t  c #56AF53",
"y  c #5BAB54",
"u  c #5FA25D",
"i  c #5BAC59",
"p  c #57B152",
"a  c #5CB254",
"s  c #5BB35A",
"d  c #5BBA54",
"f  c #62A755",
"g  c #64A55C",
"h  c #6BA35E",
"j  c #62AA5B",
"k  c #68AC59",
"l  c #61B057",
"z  c #63B15D",
"x  c #6A9C67",
"c  c #6E9B6C",
"v  c #729D6F",
"b  c #729C72",
"n  c #799D71",
"m  c #789579",
"M  c #63A261",
"N  c #6FA267",
"B  c #64A961",
"V  c #6AA867",
"C  c #6CA46A",
"Z  c #75A567",
"A  c #FCDCAD",
"S  c #F3DBAD",
"D  c #ECDCBB",
"F  c #F5DDB4",
"G  c #FCDDB2",
"H  c #F3DEBC",
"J  c #FCDDBC",
"K  c #DAECAE",
"L  c #C2E3BF",
"P  c #CBE5BD",
"I  c #FCE1AD",
"U  c #EBE9B4",
"Y  c #ECE5BB",
"T  c #EBE9B8",
"R  c #F4E2B5",
"E  c #FDE2B3",
"W  c #F5E4BB",
"Q  c #FCE3BB",
"!  c #F5EBBD",
"~  c #FFEABE",
"^  c #BFDDC1",
"/  c #BFE2C2",
"(  c #BFE9C5",
")  c #BFE1C9",
"_  c #BFECCA",
"`  c #C4DEC5",
"'  c #CBDDC5",
"]  c #C5DEC9",
"[  c #CCDDCD",
"{  c #D3D3C7",
"}  c #D2DECC",
"|  c #DBDECC",
" . c #D3DDC4",
".. c #CCDED3",
"X. c #D1DED2",
"o. c #DDDCD3",
"O. c #DADFDB",
"+. c #E7DBC3",
"@. c #ECDDC2",
"#. c #EDDDCA",
"$. c #F4DFC3",
"%. c #FCDDC3",
"&. c #F3DBCA",
"*. c #FEDDCA",
"=. c #F2DED3",
"-. c #C4E3C5",
";. c #CAE5C5",
":. c #C5E9C5",
">. c #CBE9C5",
",. c #C6E6CA",
"<. c #C8E6CA",
"1. c #C5E9CA",
"2. c #CBE9CF",
"3. c #C9EACF",
"4. c #CAE9CD",
"5. c #CCEACE",
"6. c #CDEBCF",
"7. c #CDE9CE",
"8. c #CBEDCE",
"9. c #CBE9CC",
"0. c #D2E2C4",
"q. c #D0EBC2",
"w. c #D3E4CC",
"e. c #D8E5C9",
"r. c #D1EBCD",
"t. c #DBEECE",
"y. c #D6FFC7",
"u. c #D5FFCA",
"i. c #DBFFCB",
"p. c #C5E5D3",
"a. c #CBE3D2",
"s. c #CDE1D2",
"d. c #CBE4D1",
"f. c #CAE6D1",
"g. c #CFE5D1",
"h. c #CEE7D2",
"j. c #CFE4D3",
"k. c #CDE4D2",
"l. c #C6EAD4",
"z. c #C9E8D0",
"x. c #CDE9D2",
"c. c #CDEAD1",
"v. c #CFEDD1",
"b. c #CDEED1",
"n. c #CCEBD2",
"m. c #D0E2D1",
"M. c #D1E7D3",
"N. c #D2E5D5",
"B. c #D2E3D3",
"V. c #D9E4D4",
"C. c #D0E9D2",
"Z. c #D0EED2",
"A. c #D2ECD3",
"S. c #D5E6D9",
"D. c #D2E6DA",
"F. c #D8E5DB",
"G. c #D6EFD9",
"H. c #D1F0D1",
"J. c #DCFFDA",
"K. c #E1E2C0",
"L. c #EDE1C4",
"P. c #EAE8C4",
"I. c #EEE1CD",
"U. c #ECEBCC",
"Y. c #F4E2C3",
"T. c #FCE3C4",
"R. c #F4EAC4",
"E. c #FCE8C3",
"W. c #F3E4CC",
"Q. c #F9E3CC",
"!. c #F2EACC",
"~. c #F9EAC9",
"^. c #E7E1D1",
"/. c #ECE5D2",
"(. c #EDE6DC",
"). c #F5E4D2",
"_. c #FEE5D2",
"`. c #F4EBD4",
"'. c #F3E3DC",
"]. c #F4EDDA",
"[. c #EAFFD3",
"{. c #E3FFDB",
"}. c #ECFFDD",
"|. c #F0FFD4",
" X c #F1FFDF",
".X c #E5FFE2",
"XX c #EBFFE2",
"oX c #E5FFE8",
"OX c #ECFFEC",
"+X c #F2FFEB",
"@X c #F4FFF5",
"#X c #FDFDF6",
"$X c #F6FCFB",
"%X c #FBFFFF",
"&X c #FFFDFF",
"*X c #FDFEFD",
/* pixels */
",.,.<.<.<.<.<.<.<.<.<.<.<.<.<.<.<.<.<.<.<.<.<.<.8.-.5.,.<.<.<.:.:.:.9.,.<.<.c.,.<.,.,.,.<.<.<.<.<.<.<.<.<.<.<.<.<.<.<.<.<.<.<.<.",
",.,.<.<.<.<.<.<.<.<.<.<.<.<.<.<.<.<.<.<.<.<.<.<.,.<.<.<.-.8.-.5.1.-.-.8.-.c.<.-.,.,.,.,.<.<.<.<.<.<.<.<.<.<.<.<.<.<.<.<.<.<.<.<.",
"<.<.<.<.<.<.<.<.<.<.<.<.<.<.<.<.<.<.<.<.,.,.,.,.4.8.-.8.8.-.b.-.,.b.8.,.c.,.-.5.,.,.,.,.<.<.<.<.<.<.<.<.<.<.<.<.<.<.<.<.<.<.<.<.",
"<.<.<.<.<.<.<.<.<.<.<.<.<.<.<.<.<.<.<.<.,.,.,.,.:.-.4.:.,.,.1.8.,.-.-.<.-.4.4.:.:.1.,.,.<.<.<.<.<.<.<.<.<.<.<.<.<.<.<.<.<.<.<.<.",
"<.<.<.<.<.<.<.<.<.<.,.,.<.<.<.<.1.:.:.:.;.;.<.<.,.b.-.,.b.8.-.<.f.f.f.,.4.;.:.:.:.:.<.<.<.<.<.<.<.<.<.<.<.<.<.<.<.<.<.<.<.<.<.<.",
"<.<.<.<.<.<.<.<.<.<.,.,.<.<.<.<.:.:.:.:.;.<.<.<.,.<.5.<.c.` c.<.a.h.a.<.<.;.:.:.<.<.<.<.<.<.<.<.<.<.<.<.<.<.<.<.<.<.<.<.<.<.<.<.",
"<.<.<.<.<.<.,.,.,.,.,.,.,.,.,.,.:.:.:.:.<.<.<.<.7.M.7.<.7.7.[ N...B.s.7.7.<.,.<.<.<.<.<.<.<.<.<.<.<.<.<.<.<.<.<.<.<.<.<.<.<.<.<.",
"<.<.<.<.<.<.,.,.,.,.,.,.,.,.,.,.,.,.,.<.<.<.7.7.7.[ X                   m.7.h.<.f.f.f.<.<.<.,.1.<.<.<.<.<.<.<.<.<.<.<.<.<.<.<.<.",
"<.<.<.<.,.,.,.,.1.8./ ,.8.8.,.,.,.,.8.<.<.M.s.                                  ..D...<.c.,.8.-.,.<.-.8.<.8.,.,.<.<.<.<.<.<.<.<.",
"<.<.<.<.,.,.,.,.,.-.8.b.,.-.,.8.,.<.<.h.<.  X                                   X   S.N.<.<./ 4.-.8.<.<.,.-.b.<.<.<.<.<.<.<.<.<.",
"<.<.<.<.,.,.,.,.8.,.<.,.` c.<.<.f.<.<.s.X                                         X     <.A.c.-.<.b.8.^ 8.Z.-.<.<.<.<.<.<.<.<.<.",
"<.<.<.<.,.,.,.,.,.8.,.c.<.7.<.M.<...S.                                                  X [ <.<.<.-.,.b.-.,.-.5.<.<.<.<.<.<.<.<.",
"<.<.<.<.<.<.,.,.<.8.<.] c.] 7.[ B.F.                                              . ^.    X s.s.<.Z.,.<.,.-.5.<.<.<.<.<.<.<.<.<.",
"<.<.<.<.<.<.,.,.<.-.<.G.<.X M.m.[   X   +   O                                   . . I..       ..<.-.8.,.5.<.,.,.<.<.<.<.<.<.<.<.",
"<.<.<.<.<.<.,.,.<.c.f.] <.X [ m.                                              . . @.W.@ .   +   h.8.-.<.,.<.8.,.<.<.<.<.<.<.<.<.",
"<.<.,.,.<.<.<.<.,.c.<.h.X X   X X X                                           . $.T.T.@..     +   <.<.8.<.-.,.<.,.,.<.<.<.<.,.,.",
"<.-.1.8.<.;.;.7.z.) f.h.      X % j n         %X&X&X&X&X&X                    . Q G E T.            h.<.<.r.-.:.1.1.<.<.<.,.,.,.",
"<.8.,.-.<.w.;.<.,.b.p.N.      X i p $         %X&X&X&X&X&X      O   (..     . D G A A T..       O     7.[ <.r.4.1.1.<.<.<.<.,.1.",
"<.<.4.4.-.-.5.:.1.,.,.]       X s p $         %X&X&X&X&X&X        .   (.&.# Q R E E G %.@ .     O     X <.<.` <.,.1.1.,.<.<.,.1.",
"7.7.<.:.8.8.-.8.1.,.<.N.      X r * X +       %X&X&X#X&X%X  X   .   $   W.J G E A Q J J @ .     O     X <.<.7.7.,.1.1.,.7.7.,.1.",
"a.p.p.1.-.:.:.:.,.h.s.X.        C % X     O       #X*X            X % h X W.Q R W H T.Q.. .             X 5.<.-.,.,.1.,.7.7.,.:.",
"h.f.x.) 3.1.>.;.w.      {     X g % $ O                           X y y XX. Y.H @ D @ &./.          O     <.:.6.,.,.,.<.7.7.,.:.",
";.<.,.,.z.<.0.    Y.Y.Y..     X 0 8 X                   O O       X y y +X  . _.. ~.@ W.W.#.'..           m.5.:.1.,.<.<.<.<.;.:.",
";.;.:.<.s.  . L.W Q G Q T.W.  $ 0 0 $ X           O     O O O   X $ y u.X '.=.@ Y.. I.. . . . .             <.:.1.,.<.7.<.;.;.;.",
"P q.;.;.  . Q.%.G E A G J T.W.  }.< B $ X           & O     O   % s 4 i.X Q.$.Y.$.. . #X#X#X#X              7.1.1.,.<.<.;.:.<.<.",
"P P >.0.  W.%.%.Q E E G J J Y.    .Xi y % X         O O   X X $ s 3 k |.. Q J W W..   &X%X$X*X      X m     } <.1.1.<.<.:.:.<.<.",
"<.<.<.;.o @.T.J Y.D T.H Q T.Y..   oX4 7 a % $ X X     + X $ % j r M  Xo F E E W L.  O %X%X#X#X      $ c X   F.m.1.1.<.<.:.:.<.s.",
"l.,.z.<.  !.W.Y.      . @.Y.L.  X X i.5 y j M % $ $ $ X $ g 5 l J.XX  H J Q I R .     $X&X*X#X      x $ X     X ,.:.<.<.:.:.<.f.",
"p.,.,.8.w.      0.;.;.'   o    .X t.X }..XC y 6 ; 6 2 d 2 5 k {.+X  Y.Q E R A E..   O O   O       X C % X     X.<.1.<.<.:.:.<.f.",
"-.b.1.-.A.M.M.7.:.:.<.A.[ 7.' w.w.  /.  o }.y.q 9 9 3 p a y.[.X   W.J A Q S E H                 X X c $ X     7.<.,.<.<.:.:.1.<.",
"<.<.:.<.-.:.;.-.,.Z.` -.A.-.<.c.[ w.  !.@.. X }..X.XOXOX+XX   R.L.~.G I E Q G E.  X     O O     $ b X X X   ;.>.<.<.s.s.1.:.,.1.",
";.>.;.:.9.:.:.4.<.-.<.c.-.8.,.-.h.7.  P.R.L.`.    .   . . ).$.W Y.@ I I E E G Y X b X X     X $ c $ X X   s.9.L ,.<.s.s.,.:.1.,.",
"<.<.<.<.<.<.<.<.<.,.8.<.<.,.-.<.-.>.;.X X K.R.W W Y.J J J T.J J @ T.R I Q F @ U $ V B % % % * j v X X X 7.7.<.:.,.<.<.<.;.:.;.<.",
"<.<.<.<.<.<.<.<.<.8.-.-.<.<.f.<.8.1.$ c Z $ K U R ~ G E G A G Q @ H W R T.@ R U $ < z 4 z i q j X X X 7.<.c.` <.,.,.<.<.;.;.;.;.",
"<.<.<.<.<.<.<.<.-.8.,.8.<.-.<.<.m.X % f ; > * $ T F G E F Q E G E.@ @ @ . H Q W Y X g j e j g $ X X 7.` <.<.-.<.,.,.<.<.;.;.<.<.",
"<.<.<.<.<.<.<.<.8.,.8.-.c.<.<.h.  X $ i , = w f $ Y R.E.F Q F Q F T.%.&.Y.T.Q J Y.  }.{.J.% $ $ X <.<.A.5.-.<.-.,.,.<.<.;.<.<.<.",
"<.<.<.<.,.,.,.,.,.8.-.8.-.<.<.X X X $ M - : : 8 1 X X . _.*.Y.Y.! F J J G I E R Y.W.      X X -.<.7.<.<.-.8.<.b.,.,.,.,.<.<.<.<.",
"<.<.<.<.,.,.,.,.5.-.8.-.<.c.<.X $ $ $ $ % s 6 p % 5.' | @ .   U.P.R.%.T.J E R W . .     + ..[ M.h.<.<.<.-.<.8.-.,.,.,.,.<.<.<.<.",
",.,.,.,.,.,.,.,.<.-.5.8.<.<.<.X g % X   X X $ X X h.} e.0.0.w.X     . . . . . @ ! Y   N.p.p.s.<.<.,.8.<.<.1.,.8.,.,.,.,.<.<.<.<.",
",.,.,.,.,.,.,.,.<.<.<.<.<.c.h.X h 1     O     X X h.;.;.:.9.<.<.7.w.o.o.o.  `.@.R !   <.p.l.<.r.<.8.-.,.8.,.8.-.,.,.,.,.<.<.<.<.",
",.,.,.,.,.,.,.,.8.-.8.5.<.7.7.<.X   #X#X&X  X X X >.;.;.1.,.<.4.,.<.V.  . $.T.J Q W   w.,.,.r.;.;.,.,.,.,.,.,.,.,.,.<.<.<.<.<.<.",
",.,.,.,.,.,.,.,.-.<.5.-.5.-.<.m.          @X$ N h $ :.n.,.8.<.4.8.<.[   +.T.J J T.D   B.<.1.;.;.;.,.,.,.,.,.,.,.,.,.<.<.<.<.<.<.",
"<.<.<.<.,.,.,.,.<.<.,.<.<.7.<.s.  O *X&X&X  $ f 5 * _ p.<.,.5.` -.-.p.  ].$.T.T.Y.o   [ A.-.:.4.<.<.<.<.,.,.<.<.<.<.<.<.<.<.<.<.",
"<.<.<.<.,.,.,.,.-.<.<.<.<.-.h.      &X%X&X@X$ j y B $ p.<.<.-.Z.-.b.p.h.  . @ .   0.r.<.<.<.<.,.<.<.<.<.,.,.<.<.<.<.<.<.<.<.<.<.",
"<.<.<.<.<.<.<.<.,.8.<.<.<.-.h.X     O %X%XX C u $ X X B.<.n.-.:.1.,.-.<.e.e.0.0.;.>.L 4.1.1.4.<.<.<.<.<.<.<.<.<.<.<.<.<.<.<.<.<.",
"<.<.<.<.<.<.<.<.<.<.,.<.7.7.<.<.  +   +   X % $ @X%X  B.7.-.1.:.-.4.9.:.` <.>.;.4.:.9.4._ 1.<.;.<.<.<.<.<.<.<.<.<.<.<.<.<.<.<.<.",
"<.<.<.<.<.<.<.<.,.<.5.-.z.-.<.f.c.        w.X @X*X$X&X  <.9.:.<.M.<.( :.1.-.5.,.<.f.-.-.n.,.<.;.<.<.<.;.<.<.<.<.<.<.<.<.<.<.,.,.",
"<.<.<.<.<.<.<.<.8.,.<.8.,.<.<.,.,.7.X   } |   #X&X&X&X  ;.:.8.<.7.7.:.( 3.1.-.<.f.p.c.<.-.z.;.<.<.<.<.;.;.;.<.<.<.<.<.<.<.<.,.,.",
"<.<.<.<.<.<.<.<.<.<.<.<.<.<.<.,.4.-.<.7.B.  #X&X&X&X&X@XX 5.-.<.<.<.,.1.,.<.<.<.<.<.<.<.,.,.<.<.<.<.<.<.<.<.<.<.<.<.<.<.<.<.<.<.",
"<.<.<.<.<.<.<.<.<.<.<.<.<.<.<.,.:.8.,.A.B.  #X&X&X&X*X*XX ` Z.-.<.<.<.<.<.<.<.<.<.<.<.<.<.<.<.<.<.<.<.<.<.<.<.<.<.<.<.<.<.<.<.<.",
"<.<.<.<.<.<.<.<.<.<.<.<.<.<.<.,.-.:.5.[ [   &X&X&X&X%X  N.<.-.6.<.<.<.<.<.<.<.<.<.<.<.<.<.<.<.<.<.<.<.<.<.<.<.<.<.<.<.<.<.<.<.<.",
"<.<.<.<.<.<.<.<.<.<.<.<.<.<.<.<.b.-.<.[ X %X$X&X&X&X&X  [ A.<.,.<.<.<.<.<.<.<.<.<.<.<.<.<.<.<.<.<.<.<.<.<.<.<.<.<.<.<.<.<.<.<.<.",
"<.<.<.<.<.<.<.<.<.<.<.<.<.<.<.<.-.<.h.N.    &X&X&X%X%X  [ <.<.,.<.<.<.<.<.<.<.<.<.<.<.<.<.<.<.<.<.<.<.<.<.<.<.<.<.<.<.<.<.<.<.<.",
"<.<.<.<.<.<.<.<.<.<.<.<.<.<.<.<.c.-.7.X         O     [ M.h.-.,.<.<.<.<.<.<.<.<.<.<.<.<.<.<.<.<.<.<.<.<.<.<.<.<.<.<.<.<.<.<.<.<.",
"<.<.<.<.<.<.<.<.<.<.<.<.<.<.<.<.-.c.<.X       #X$X  X.m.7.-.8.8.<.<.<.<.<.<.<.<.<.<.<.<.<.<.<.<.<.<.<.<.<.<.<.<.<.<.<.<.<.<.<.<.",
"<.<.<.<.<.<.<.<.<.<.<.<.<.<.<.<.<.-.h.<.X   X     X.[ M.<.<.8.-.<.<.<.<.<.<.<.<.<.<.<.<.<.<.<.<.<.<.<.<.<.<.<.<.<.<.<.<.<.<.<.<.",
"<.<.<.<.<.<.<.<.<.<.<.<.<.<.<.<.<.-.5.<.h.  X   m.7.7.<.<.<.,.,.<.<.<.<.<.<.<.<.<.<.<.<.<.<.<.<.<.<.<.<.<.<.<.<.<.<.<.<.<.<.<.<.",
"<.<.<.<.<.<.<.<.<.<.<.<.<.<.<.<.<.<.-.<.7.7.h.h.7.7.<.<.<.,.:.:.<.<.<.<.<.<.<.<.<.<.<.<.<.<.<.<.<.<.<.<.<.<.<.<.<.<.<.<.<.<.<.<.",
"<.<.<.<.<.<.<.<.<.<.<.<.<.<.<.<.,./ 6.b.-.<.7.-.<.<.<.<.<.,.1.:.<.<.<.<.<.<.<.<.<.<.<.<.<.<.<.<.<.<.<.<.<.<.<.<.<.<.<.<.<.<.<.<.",
"<.<.<.<.<.<.<.<.<.<.<.<.<.<.<.<.1.4.-.,.5.-.c.5.<.<.<.<.,.,.,.,.<.<.<.<.<.<.<.<.<.<.<.<.<.<.<.<.<.<.<.<.<.<.<.<.<.<.<.<.<.<.<.<.",
"<.<.<.<.<.<.<.<.<.<.<.<.<.<.<.<.,.6.4.-.,.Z.-.-.<.<.<.<.<.<.<.<.<.<.<.<.<.<.<.<.<.<.<.<.<.<.<.<.<.<.<.<.<.<.<.<.<.<.<.<.<.<.<.<.",
"<.<.<.<.<.<.<.<.<.<.<.<.<.<.<.<.4.-.4.4.,.-.-.6.<.<.<.<.<.<.<.<.<.<.<.<.<.<.<.<.<.<.<.<.<.<.<.<.<.<.<.<.<.<.<.<.<.<.<.<.<.<.<.<.",
"<.<.<.<.<.<.<.<.<.<.<.<.<.<.<.<.5.8.-.b.-.<.8.,.<.<.<.<.<.<.<.<.<.<.<.<.<.<.<.<.<.<.<.<.<.<.<.<.<.<.<.<.<.<.<.<.<.<.<.<.<.<.<.<.",
"<.<.<.<.<.<.<.<.<.<.<.<.<.<.<.<.<.<.8.:.5.-.<.-.<.<.<.<.<.<.<.<.<.<.<.<.<.<.<.<.<.<.<.<.<.<.<.<.<.<.<.<.<.<.<.<.<.<.<.<.<.<.<.<."
};
