/* XPM */
static char *ed8b6274827e424091a723ec537498ffh7tUSOYoHEWDv3Ar[] = {
/* columns rows colors chars-per-pixel */
"64 64 188 2 ",
"   c #000401",
".  c #0D0100",
"X  c #000900",
"o  c #02030A",
"O  c #000E0B",
"+  c #140000",
"@  c #1C0000",
"#  c #000A15",
"$  c #000A1D",
"%  c #000510",
"&  c #00101A",
"*  c #001213",
"=  c #210000",
"-  c #340000",
";  c #3C0000",
":  c #000A20",
">  c #00152C",
",  c #000F3A",
"<  c #001133",
"1  c #001930",
"2  c #E63D38",
"3  c #CC5C0B",
"4  c #C75806",
"5  c #D35B0D",
"6  c #D94E1D",
"7  c #DB521C",
"8  c #D8581B",
"9  c #E0531B",
"0  c #C66207",
"q  c #D26111",
"w  c #DB4C27",
"e  c #DC5327",
"r  c #D34C3D",
"t  c #C45E32",
"y  c #D1503D",
"u  c #E34D24",
"i  c #ED452D",
"p  c #EB4C2B",
"a  c #E94B26",
"s  c #F1492E",
"d  c #E35422",
"f  c #E45628",
"g  c #EE463D",
"h  c #E64A34",
"j  c #F24736",
"k  c #F4483D",
"l  c #B75B4C",
"z  c #BC5A4C",
"x  c #BE5B52",
"c  c #B45A52",
"v  c #BA5B61",
"b  c #D44D43",
"n  c #DB4C44",
"m  c #D94F4C",
"M  c #CC5141",
"N  c #D35344",
"B  c #DA5143",
"V  c #D4544B",
"C  c #CF4A5B",
"Z  c #D54B54",
"A  c #DF4A50",
"S  c #E24E43",
"D  c #EA434A",
"F  c #E45044",
"G  c #E14C52",
"H  c #C05A67",
"J  c #469B76",
"K  c #4BA17E",
"L  c #4AA273",
"P  c #FFE937",
"I  c #FFDB4E",
"U  c #FFDA48",
"Y  c #FFD555",
"T  c #FFDC52",
"R  c #FFDB5C",
"E  c #EFED4B",
"W  c #FFEA43",
"Q  c #FFE34E",
"!  c #F4EF4E",
"~  c #FDE94E",
"^  c #FFE745",
"/  c #FFE155",
"(  c #FDED52",
")  c #F9E957",
"_  c #FFCC6C",
"`  c #FFCE61",
"'  c #FFDC61",
"]  c #FFD973",
"[  c #CEEE6F",
"{  c #DBEC6C",
"}  c #D8EE67",
"|  c #DDF36B",
" . c #DEF066",
".. c #DFEE73",
"X. c #D8EB77",
"o. c #D5F57D",
"O. c #D9F77E",
"+. c #D4F675",
"@. c #E1EE6B",
"#. c #E2F36C",
"$. c #E1F575",
"%. c #249EAD",
"&. c #2A9FB6",
"*. c #3596BC",
"=. c #1FA2BE",
"-. c #2AA4A5",
";. c #2BA4AB",
":. c #25A2AA",
">. c #31A4AB",
",. c #21A5B6",
"<. c #29A3B3",
"1. c #23A6BA",
"2. c #23A8B9",
"3. c #469F81",
"4. c #519F85",
"5. c #4399AA",
"6. c #1E9DD7",
"7. c #1D9EDD",
"8. c #289CCF",
"9. c #3B95C4",
"0. c #3F98C4",
"q. c #249EDA",
"w. c #1DA4C3",
"e. c #0CA7DF",
"r. c #1BA3DD",
"t. c #21A4C2",
"y. c #24A7C7",
"u. c #23A0DA",
"i. c #0CA5E5",
"p. c #0AA5EB",
"a. c #10A7E0",
"s. c #19A1E1",
"d. c #11ABE9",
"f. c #00A6F3",
"g. c #04ABFC",
"h. c #08A9F7",
"j. c #21A1E4",
"k. c #4098C6",
"l. c #B7FAAD",
"z. c #B8FCAF",
"x. c #B9F8B6",
"c. c #D7F088",
"v. c #DBF788",
"b. c #D9EB95",
"n. c #F2E980",
"m. c #D2F1A5",
"M. c #C4E7BF",
"N. c #BEE2C2",
"B. c #BFEACD",
"V. c #BEEAC6",
"C. c #C5DDC6",
"Z. c #CDDCC7",
"A. c #C5DEC9",
"S. c #CCDDCC",
"D. c #D3DCCA",
"F. c #D6D9C8",
"G. c #CEDFD1",
"H. c #D0DDD1",
"J. c #DCDED1",
"K. c #C4E5C5",
"L. c #C9E5C6",
"P. c #C5E8C7",
"I. c #C9EAC5",
"U. c #C6E7CA",
"Y. c #C8E6CA",
"T. c #C5E8CA",
"R. c #CAEACC",
"E. c #D1E3CE",
"W. c #D1ECCF",
"Q. c #C5E4D2",
"!. c #CAE6D1",
"~. c #CFE5D1",
"^. c #CDE4D1",
"/. c #C7EAD1",
"(. c #CDEAD2",
"). c #C6E4DC",
"_. c #D1E0D1",
"`. c #D4E2D2",
"'. c #D3E4D3",
"]. c #D2E9D4",
"[. c #D4E4DA",
"{. c #D9E7DA",
"}. c #FEFFEF",
"|. c #F5FFF7",
" X c #FCFEF5",
".X c #F9F7FC",
"XX c #F6FFFC",
"oX c #FDFEFD",
/* pixels */
"Y.Y.Y.Y.Y.Y.Y.Y.Y.Y.Y.Y.Y.Y.Y.Y.Y.Y.Y.Y.Y.Y.U.U.U.U.P.P.P.P.P.P.P.P.P.P.P.P.Y.Y.Y.Y.Y.Y.Y.Y.Y.L.Y.Y.Y.Y.Y.Y.Y.Y.Y.Y.Y.Y.Y.Y.Y.Y.",
"Y.Y.Y.Y.Y.Y.Y.Y.Y.Y.Y.Y.Y.Y.Y.Y.Y.Y.Y.Y.Y.Y.U.U.U.U.P.P.U.U.U.U.U.P.P.P.P.L.Y.Y.Y.Y.Y.Y.Y.Y.Y.Y.Y.Y.Y.Y.Y.Y.Y.Y.Y.Y.Y.Y.Y.Y.Y.Y.",
"Y.Y.Y.Y.Y.Y.Y.Y.Y.Y.Y.Y.Y.Y.Y.Y.Y.Y.Y.Y.Y.Y.Y.Y.Y.Y.Y.Y.Y.Y.Y.Y.Y.Y.Y.Y.Y.Y.Y.Y.Y.Y.Y.Y.Y.Y.Y.Y.Y.Y.Y.Y.Y.Y.Y.Y.Y.Y.Y.Y.Y.Y.Y.Y.",
"Y.Y.Y.Y.Y.Y.Y.Y.Y.Y.Y.Y.Y.Y.Y.Y.Y.Y.Y.Y.Y.Y.Y.Y.Y.Y.Y.Y.Y.Y.Y.Y.Y.Y.Y.Y.Y.Y.Y.Y.Y.Y.Y.Y.Y.Y.Y.Y.Y.Y.Y.Y.Y.Y.Y.Y.Y.Y.Y.Y.Y.Y.Y.Y.",
"Y.Y.Y.Y.Y.Y.Y.Y.Y.Y.Y.Y.Y.Y.Y.Y.U.U.U.U.Y.Y.Y.Y.Y.Y.Y.Y.Y.Y.Y.Y.Y.Y.Y.Y.Y.Y.Y.Y.Y.Y.Y.Y.U.U.U.U.Y.Y.Y.Y.Y.Y.Y.Y.Y.Y.Y.Y.Y.Y.Y.Y.",
"Y.Y.Y.Y.Y.Y.Y.Y.Y.Y.Y.Y.Y.Y.Y.Y.U.U.U.U.Y.Y.Y.Y.Y.Y.Y.Y.Y.Y.Y.Y.Y.Y.Y.Y.Y.Y.Y.Y.Y.Y.Y.Y.U.U.U.U.Y.Y.Y.Y.Y.Y.Y.Y.Y.Y.Y.Y.Y.Y.Y.Y.",
"Y.Y.Y.Y.Y.Y.Y.Y.Y.Y.Y.Y.Y.Y.Y.Y.U.U.Y.Y.Y.Y.Y.Y.Y.Y.Y.Y.Y.Y.Y.Y.Y.Y.Y.Y.Y.Y.Y.U.U.U.Y.Y.Y.Y.Y.Y.Y.Y.Y.Y.Y.Y.Y.Y.Y.Y.Y.Y.Y.Y.Y.Y.",
"Y.Y.Y.Y.Y.Y.Y.Y.Y.Y.Y.Y.Y.Y.Y.Y.Y.Y.Y.Y.Y.Y.Y.Y.Y.U.Y.U.U.U.U.U.Y.Y.Y.U.U.U.U.U.U.U.Y.Y.Y.Y.Y.Y.Y.Y.Y.Y.Y.Y.Y.Y.Y.Y.Y.Y.Y.Y.Y.Y.",
"Y.Y.Y.Y.Y.Y.Y.Y.Y.Y.Y.Y.Y.Y.Y.Y.Y.Y.Y.L.Y.Y.U.U.U.P.U.P.P.P.P.P.P.R.P.P.R.K.I.P.P.P.U.Y.Y.Y.Y.Y.Y.Y.Y.Y.Y.Y.Y.Y.Y.Y.Y.Y.Y.Y.Y.Y.",
"Y.Y.Y.Y.Y.Y.Y.Y.Y.Y.Y.Y.Y.Y.Y.Y.Y.Y.Y.L.Y.Y.U.U.U.P.P.P.P.P.P.P.P.P.P.K.R.P.K.P.P.P.P.U.Y.Y.Y.Y.Y.Y.Y.Y.Y.Y.Y.Y.Y.Y.Y.Y.Y.Y.Y.Y.",
"Y.Y.Y.Y.Y.Y.Y.Y.Y.Y.Y.Y.Y.Y.Y.Y.Y.L.L.L.Y.Y.Y.U.U.P.P.P.P.P.U.P.U.R.U.U.K.U.K.P.P.P.U.U.Y.Y.Y.Y.Y.Y.Y.Y.Y.Y.Y.Y.Y.Y.Y.Y.Y.Y.Y.Y.",
"Y.Y.Y.Y.Y.Y.Y.Y.Y.Y.Y.Y.Y.Y.Y.Y.Y.L.L.Y.Y.Y.Y.Y.U.U.U.U.U.U.U.U.Y.C.Y.U.(.R.U.K.P.P.U.U.Y.Y.Y.Y.Y.Y.Y.Y.Y.Y.Y.Y.Y.Y.Y.Y.Y.Y.Y.Y.",
"Y.Y.Y.Y.Y.Y.Y.Y.Y.Y.Y.Y.Y.Y.Y.Y.Y.Y.Y.Y.Y.Y.Y.Y.Y.Y.Y.Y.^.^.^.^.^.^.^.^.A.U.Y.Y.Y.U.U.U.Y.Y.Y.Y.Y.Y.Y.Y.Y.Y.Y.Y.Y.Y.Y.Y.Y.Y.Y.Y.",
"Y.Y.Y.Y.Y.Y.Y.Y.Y.Y.Y.Y.Y.Y.Y.Y.U.U.P.Y.Y.Y.Y.Y.Y.Y.Y.E._._._._.H._.`.S.].^.Y.(.Y.Y.U.U.Y.Y.Y.Y.Y.Y.Y.Y.Y.Y.Y.Y.Y.Y.Y.Y.Y.Y.Y.Y.",
"Y.Y.Y.Y.Y.Y.Y.Y.Y.Y.Y.Y.Y.Y.Y.U.P.P.U.Y.Y.Y.Y.^.X                           ].A.Y.Y.U.U.U.U.U.U.Y.Y.Y.Y.Y.Y.Y.Y.Y.Y.Y.Y.Y.Y.Y.Y.",
"Y.Y.Y.Y.Y.U.U.Y.Y.Y.Y.Y.U.U.Y.Y.U.U.U.Y.^._._.J.. @ @ @ @ @ @ = = @ @ @ @ + F.`.Y.Y.Y.U.Y.Y.U.U.U.Y.Y.Y.Y.Y.Y.Y.Y.Y.Y.Y.Y.Y.Y.Y.",
"Y.Y.Y.Y.U.P.P.U.Y.L.Y.Y.K.R.K.I.L.Y.Y.Y.      @ l N b N N r B b b N N N y z @       (.I.L.L./.B.U.U.Y.Y.L.Y.Y.Y.Y.Y.U.U.Y.Y.Y.L.",
"Y.Y.Y.Y.P.P.P.Y.Y.L.Y.I.K.K.I.Y.L.L.].D.+ @ = ; n i u 6 7 7 9 d 7 7 7 d i F ; = = + Z.K.L.E.K.T.U.U.Y.Y.L.Y.Y.Y.Y.Y.U.U.Y.Y.Y.L.",
"Y.Y.Y.U.U.U.Y.L.L.K.I.P.R.U.(.Y./.!.  + l M V r h 6 _ ' R R T U T R R _ a 2 A Z b z . X E.E.Y.Y.Y.U.Y.Y.L.L.Y.Y.Y.Y.U.U.Y.Y.Y.L.",
"Y.Y.Y.U.U.Y.Y.L.L.R.K.R.N.Y.^.^.!.`.+ - r p w e 8 0 / ) ..c.o.o.v.{ ~ I 4 f e h j n - . J.`.Z.L.Y.U.Y.Y.L.L.Y.Y.Y.Y.U.U.Y.Y.Y.L.",
"Y.Y.Y.P.P.Y.Y.Y.Y.!./.U.(.!.E.E.  + x S g p _ Y T U W { 4.&.;.:.%.K #.P ~ I R _ u g n c .   U.I.U.U.U.U.U.U.Y.Y.Y.Y.Y.Y.Y.Y.Y.Y.",
"Y.Y.Y.Y.P.U.Y.Y.^.!./.(.U.Y.E.F.+ - n i u 5 T ( #.O.X.x.y.h.g.f.h.=.l.+.+.| ! / q u k n - + D.Y.Y.U.U.U.U.U.U.U.Y.Y.Y.Y.Y.Y.Y.Y.",
"U.Y.Y.Y.Y.U.U.Y.L.R.R.U.T.(.  = z B h d ` Q W @.J ;.>.t.p.g.f.g.h.i.t.:.-.L } W T _ u g n z +   Y.Y.Y.U.U.P.P.P.U.U.Y.Y.Y.Y.Y.Y.",
"P.U.Y.Y.U.U.T.U.Y.L.P.I.U.U.X = b i u 0 Q E $.l.1.d.6.u.u.7.q.q.q.q.q.r.i.,.z.| ! T 3 a j m =   Y.Y.Y.Y.U.P.P.P.U.U.Y.Y.Y.Y.Y.Y.",
"U.U.Y.Y.U.P.P.P.I.L.I.K.I.R.  = n a _ T ^ $.J y.e.r.> & $ $ $ $ $ $ $ < 7.e.2.L | W T _ h Z =   `.L.(.Y.P.P.P.P.U.U.Y.Y.Y.Y.Y.Y.",
"U.U.Y.Y.U.P.P.U.L.W.K.I.Y.D.+ - n u Y ( ..x.t.p.s.*.*                 # k.7.d.,.l.} E R w G ; @ F.].A.Y.U.P.K.R.U.Y.Y.Y.Y.Y.Y.Y.",
"U.Y.E.Y.U.P.U.Y.`.Z.(.U.  + v Z D f T @.3.w.i.j., $ Q.L.Y.A.].!.^.^.^.).# < 6.a.1.L #.T e 2 S z @   ^.Y.K.R.P.K.U.Y.Y.Y.Y.Y.Y.U.",
"Y.Y.Y.Y.U.P.Y.Y.E.Y.U.!.  @ H C Z t I O.<.h.r.*.$   ^.R.P.R./.U.U.U.U.^.  # 0.7.i.-.[ ~ 4 p s r @   S.C.R.P.P.R.U.Y.Y.Y.Y.Y.U.U.",
"Y.Y.Y.Y.U.U.Y.Y.K.R.Y.E.  . @ = @ @ ) o.<.s.1 O Q.Y.].A.^.Y.U./.U.R.Y.].^.).# < s.;.+.P I _ u N @   ].].U.R.N.P.U.Y.Y.Y.Y.Y.P.P.",
"Y.Y.U.U.Y.Y.U.P.P.P.L.D.  .         n.b.5.9.#   Y.^.E.`.Y.^.U.U.T.N.Y.Y.U.!.  $ 6.w.z. .( R 7 N @   _.S.Y.U.P.P.Y.Y.Y.Y.Y.Y.P.P.",
"Y.Y.Y.Y.Y.Y.U.U.U.(.X   oX XXXXXXX}.. . % $ XXXX        L.I.L.Y.L.W.N.P.R.^.  $ q.i.=.K ..R 7 b @   '.].Y.U.P.U.Y.L.Y.Y.Y.Y.P.P.",
"Y.Y.Y.Y.Y.Y.U.U.!.^.    oXoXXXXXXXoX        oXoX        Y.K.Y.L.L.I.P.U.Y.^.  $ 9.7.h.&.m.] t x +   S.^.Y.U.R.U.Y.Y.Y.Y.Y.Y.U.P.",
"Y.Y.Y.Y.Y.Y.Y.^.    oXoXoXoXXXoXoXoXoXoXoXoXoXoXoXoXoXXX  X S.Y.Y.R.U.K.].G.  o # < j.8.X + @ @     '.^.^.U.U.U.P.P.L.Y.Y.U.P.P.",
"Y.Y.Y.U.Y.Y.^.^.X   oXoXoXoXoXXXoXXXoXoXoXoXoXoXoXoXoXXX    G.Y.R.K.P.W.C.[.o     # 9.9.#           '.G.Y.(.U.U.P.P.P.P.U.U.U.U.",
"Y.Y.U.P.U.U.!.^.  X oXoXoXoX.XoXoXoXoXoXoXoXoXoXoXoXoXXX    `.Y.P.K.I.Y.    XXXXXXXX: $ XXoXXXXX        ^.Y.U.I.L.L.L.L.Y.Y.Y.U.",
"Y.U.P.P.U.U.Y.^.     XoXoXoXoXoXoXXXXXoXoXoXoXoXoXoXoXXX    S.Y.I.I.L.`.    XXXXXXXX    oXoXXXXX        _.^.L.Y.Y.L.L.L.L.L.Y.Y.",
"U.U.P.P.P.U.Y.Y.]._.    oX.XoXoX        oXoXoXoXoXoX    '.S.].Y.P.P.    oXoXoXoXoXoXoXoXoXoXoXoXoXoXoXXX  X ].U.Y.Y.Y.Y.Y.Y.Y.Y.",
"U.U.P.P.P.P.U.Y.L.].  X oXoXoXoX        oXoXoXXXoXoX    _.].Y.Y.Y.].    oX XoXoXoX X XoXoXoXoXoXoXoXoXoX  X Y.Y.Y.Y.Y.Y.Y.Y.Y.Y.",
"Y.U.U.P.P.P.P.U.(.Y.E.S.        D._.'.H.            `.A.].Y.L.^.^.H.    oXoXoX X XoXoXoXoXoXoXoXoXoXoXoX    ^.U.Y.Y.Y.Y.Y.Y.Y.Y.",
"Y.Y.Y.U.U.U.P.U.Y.Y.Y.].        Y.Y.Y._.          X Y.].L.Y.Y.Y.].S.    oXoXXX X XoXoXXXXXXXoXoXoXoXoXoX  X A.Y.Y.Y.I.Y.Y.Y.Y.Y.",
"Y.Y.Y.Y.Y.Y.U.U.U.U.Y.!.^.^.^.^.Y.Y.Y.Y.Y.Y.Y.Y.Y.Y.Y.Y.Y.Y.Y.Y.I.Z.    oXXXXX X XoXXXXXoXoXoX XoXoX    G.^.Y.Y.Y.U.U.Y.Y.Y.Y.Y.",
"Y.Y.Y.Y.Y.Y.Y.U.P.P.U.Y.Y.Y.^.Y.Y.Y.Y.Y.Y.Y.Y.Y.Y.Y.Y.Y.Y.U.U.P.P.W.    oXoXXXXXoXoXXXXXoXoXoXoXoXoX  X ^.Y.(.U.U.U.U.U.Y.Y.Y.Y.",
"Y.Y.Y.Y.Y.Y.Y.Y.U.P.U.U.U.U.Y.Y.U.U.Y.Y.Y.Y.Y.Y.Y.Y.Y.U.U.P.P.P.V.N.Y.`.    oXoXoXoXoXoXoXoX        {.S.^.Y.U.R.U.U.U.U.U.U.U.U.",
"Y.Y.Y.Y.Y.Y.Y.L.U.P.P.P.U.U.Y.Y.U.P.U.U.Y.Y.Y.Y.Y.Y.U.U.U.P.P.P.T.T.Y.].    oXoXoX.XoX XoXoX        S.^.Y.(.U.U.P.U.U.U.U.U.U.U.",
"U.U.Y.Y.Y.Y.L.L.Y.P.P.P.P.U.Y.Y.U.U.U.U.U.U.Y.Y.Y.Y.Y.U.U.U.U.P.U./.Y.A.Y.Y.      o         '.[.^.^.^.Y.U.U.P.I.L.Y.Y.Y.Y.Y.U.U.",
"U.U.U.Y.Y.Y.L.L.Y.U.P.P.P.U.Y.Y.Y.U.U.U.U.U.Y.Y.Y.Y.Y.Y.Y.U.Y.U.U.!.(.Y.I.R.                ].A.U.Y.U.U.P.I.P.I.L.L.Y.Y.Y.Y.U.U.",
"B.T.U.U.Y.Y.Y.Y.Y.Y.U.U.U.Y.Y.Y.Y.Y.Y.Y.Y.Y.Y.Y.Y.Y.Y.Y.Y.Y.Y.Y.U.P.P.Y.L.L.E.Y.R.R.Y.Y.E.E.Y.P.R.U.U.I.K.R.P.L.L.L.Y.Y.Y.Y.U.U.",
"T.T.U.U.Y.Y.Y.Y.Y.Y.Y.U.Y.Y.Y.Y.Y.Y.Y.Y.Y.Y.Y.Y.Y.Y.Y.Y.Y.Y.Y.Y.P.I.P.I.L.E.K.I.P.T.P.U.Y.L.Y.U.K.R.K.P.R.P.I.P.Y.Y.Y.Y.Y.Y.Y.U.",
"U.U.U.Y.Y.Y.Y.Y.Y.Y.Y.Y.Y.Y.Y.Y.Y.Y.Y.Y.Y.Y.Y.Y.Y.Y.Y.Y.Y.Y.Y.Y.Y.Y.Y.Y.Y.Y.Y.Y.U.U.U.Y.Y.Y.Y.Y.Y.Y.Y.U.Y.Y.Y.Y.Y.Y.Y.Y.Y.Y.Y.Y.",
"Y.Y.Y.Y.Y.Y.Y.Y.Y.Y.Y.Y.Y.Y.Y.Y.Y.Y.Y.Y.Y.Y.Y.Y.Y.Y.Y.Y.Y.Y.Y.Y.Y.Y.Y.Y.Y.Y.Y.Y.Y.Y.Y.Y.Y.Y.Y.Y.Y.Y.Y.Y.Y.Y.Y.Y.Y.Y.Y.Y.Y.Y.Y.Y.",
"Y.Y.Y.Y.Y.Y.Y.Y.Y.Y.Y.Y.Y.Y.Y.Y.Y.Y.Y.Y.Y.Y.Y.Y.Y.Y.Y.Y.Y.Y.Y.Y.Y.Y.Y.Y.Y.Y.Y.Y.Y.Y.Y.Y.Y.Y.Y.Y.Y.Y.Y.Y.Y.Y.Y.Y.Y.Y.Y.Y.Y.Y.Y.Y.",
"Y.Y.Y.Y.Y.Y.Y.Y.Y.Y.Y.Y.Y.Y.Y.Y.Y.Y.Y.Y.Y.Y.Y.Y.Y.Y.Y.Y.Y.Y.Y.Y.Y.Y.Y.Y.Y.Y.Y.Y.Y.Y.Y.Y.Y.Y.Y.Y.Y.Y.Y.Y.Y.Y.Y.Y.Y.Y.Y.Y.Y.Y.Y.Y.",
"Y.Y.Y.Y.Y.Y.Y.Y.Y.Y.Y.Y.Y.Y.Y.Y.Y.Y.Y.Y.Y.Y.Y.Y.Y.Y.Y.Y.Y.Y.Y.Y.Y.Y.Y.Y.Y.Y.Y.Y.Y.Y.Y.Y.Y.Y.Y.Y.Y.Y.Y.Y.Y.Y.Y.Y.Y.Y.Y.Y.Y.Y.Y.Y.",
"Y.Y.Y.Y.Y.Y.Y.Y.Y.Y.Y.Y.Y.Y.Y.Y.Y.Y.Y.Y.Y.Y.Y.Y.Y.Y.Y.Y.Y.Y.Y.Y.Y.Y.Y.Y.Y.Y.Y.Y.Y.Y.Y.Y.Y.Y.Y.Y.Y.Y.Y.Y.Y.Y.Y.Y.Y.Y.Y.Y.Y.Y.Y.Y.",
"Y.Y.Y.Y.Y.Y.Y.Y.Y.Y.Y.Y.Y.Y.Y.Y.Y.Y.Y.Y.Y.Y.Y.Y.Y.Y.Y.Y.Y.Y.Y.Y.Y.Y.Y.Y.Y.Y.Y.Y.Y.Y.Y.Y.Y.Y.Y.Y.Y.Y.Y.Y.Y.Y.Y.Y.Y.Y.Y.Y.Y.Y.Y.Y.",
"Y.Y.Y.Y.Y.Y.Y.Y.Y.Y.Y.Y.Y.Y.Y.Y.Y.Y.Y.Y.Y.Y.Y.Y.Y.Y.Y.Y.Y.Y.Y.Y.Y.Y.Y.Y.Y.Y.Y.Y.Y.Y.Y.Y.Y.Y.Y.Y.Y.Y.Y.Y.Y.Y.Y.Y.Y.Y.Y.Y.Y.Y.Y.Y.",
"Y.Y.Y.Y.Y.Y.Y.Y.Y.Y.Y.Y.Y.Y.Y.Y.Y.Y.Y.Y.Y.Y.Y.Y.Y.Y.Y.Y.Y.Y.Y.Y.Y.Y.Y.Y.Y.Y.Y.Y.Y.Y.Y.Y.Y.Y.Y.Y.Y.Y.Y.Y.Y.Y.Y.Y.Y.Y.Y.Y.Y.Y.Y.Y.",
"Y.Y.Y.Y.Y.Y.Y.Y.Y.Y.Y.Y.Y.Y.Y.Y.Y.Y.Y.Y.Y.Y.Y.Y.Y.Y.Y.Y.Y.Y.Y.Y.Y.Y.Y.Y.Y.Y.Y.Y.Y.Y.Y.Y.Y.Y.Y.Y.Y.Y.Y.Y.Y.Y.Y.Y.Y.Y.Y.Y.Y.Y.Y.Y.",
"Y.Y.Y.Y.Y.Y.Y.Y.Y.Y.Y.Y.Y.Y.Y.Y.Y.Y.Y.Y.Y.Y.Y.Y.Y.Y.Y.Y.Y.Y.Y.Y.Y.Y.Y.Y.Y.Y.Y.Y.Y.Y.Y.Y.Y.Y.Y.Y.Y.Y.Y.Y.Y.Y.Y.Y.Y.Y.Y.Y.Y.Y.Y.Y.",
"Y.Y.Y.Y.Y.Y.Y.Y.Y.Y.Y.Y.Y.Y.Y.Y.Y.Y.Y.Y.Y.Y.Y.Y.Y.Y.Y.Y.Y.Y.Y.Y.Y.Y.Y.Y.Y.Y.Y.Y.Y.Y.Y.Y.Y.Y.Y.Y.Y.Y.Y.Y.Y.Y.Y.Y.Y.Y.Y.Y.Y.Y.Y.Y.",
"Y.Y.Y.Y.Y.Y.Y.Y.Y.Y.Y.Y.Y.Y.Y.Y.Y.Y.Y.Y.Y.Y.Y.Y.Y.Y.Y.Y.Y.Y.Y.Y.Y.Y.Y.Y.Y.Y.Y.Y.Y.Y.Y.Y.Y.Y.Y.Y.Y.Y.Y.Y.Y.Y.Y.Y.Y.Y.Y.Y.Y.Y.Y.Y.",
"Y.Y.Y.Y.Y.Y.Y.Y.Y.Y.Y.Y.Y.Y.Y.Y.Y.Y.Y.Y.Y.Y.Y.Y.Y.Y.Y.Y.Y.Y.Y.Y.Y.Y.Y.Y.Y.Y.Y.Y.Y.Y.Y.Y.Y.Y.Y.Y.Y.Y.Y.Y.Y.Y.Y.Y.Y.Y.Y.Y.Y.Y.Y.Y.",
"Y.Y.Y.Y.Y.Y.Y.Y.Y.Y.Y.Y.Y.Y.Y.Y.Y.Y.Y.Y.Y.Y.Y.Y.Y.Y.Y.Y.Y.Y.Y.Y.Y.Y.Y.Y.Y.Y.Y.Y.Y.Y.Y.Y.Y.Y.Y.Y.Y.Y.Y.Y.Y.Y.Y.Y.Y.Y.Y.Y.Y.Y.Y.Y.",
"Y.Y.Y.Y.Y.Y.Y.Y.Y.Y.Y.Y.Y.Y.Y.Y.Y.Y.Y.Y.Y.Y.Y.Y.Y.Y.Y.Y.Y.Y.Y.Y.Y.Y.Y.Y.Y.Y.Y.Y.Y.Y.Y.Y.Y.Y.Y.Y.Y.Y.Y.Y.Y.Y.Y.Y.Y.Y.Y.Y.Y.Y.Y.Y."
};
