/* XPM */
static char *_4654133d6074b29a63d87920eccb116gYh0cRtRHtmi6yWZ[] = {
/* columns rows colors chars-per-pixel */
"64 64 175 2 ",
"   c #419A3E",
".  c #3F9C44",
"X  c #419746",
"o  c #439D45",
"O  c #489F45",
"+  c #429449",
"@  c #4B964E",
"#  c #459D49",
"$  c #4A9B4D",
"%  c #4C9652",
"&  c #4C9D51",
"*  c #529554",
"=  c #529C54",
"-  c #529659",
";  c #559C5A",
":  c #43A046",
">  c #4AA246",
",  c #45A149",
"<  c #49A24C",
"1  c #47A350",
"2  c #4CA251",
"3  c #51A354",
"4  c #53A458",
"5  c #5DB662",
"6  c #5EBB63",
"7  c #66AF68",
"8  c #6AAF6E",
"9  c #63B565",
"0  c #63BB66",
"q  c #65B56A",
"w  c #6AB56D",
"e  c #65BB6A",
"r  c #69BB6D",
"t  c #6CAF71",
"y  c #71AD73",
"u  c #67B770",
"i  c #6DB472",
"p  c #67BB72",
"a  c #6CBA72",
"s  c #71B475",
"d  c #71BA74",
"f  c #73B579",
"g  c #79B47B",
"h  c #74B979",
"j  c #63C067",
"k  c #65C16B",
"l  c #69C06E",
"z  c #67C070",
"x  c #6EC173",
"c  c #96CF99",
"v  c #9DCE9F",
"b  c #95D696",
"n  c #94DC96",
"m  c #99DE97",
"M  c #96D699",
"N  c #9CD59D",
"B  c #96DC9A",
"V  c #9BDB9D",
"C  c #A2D69E",
"Z  c #A2DA9E",
"A  c #95E297",
"S  c #96E29B",
"D  c #9AE19D",
"F  c #9FCEA1",
"G  c #9ED5A2",
"H  c #9EDBA2",
"J  c #A4CFA4",
"K  c #A5CEAA",
"L  c #AACFAC",
"P  c #A3D5A5",
"I  c #A9D4A7",
"U  c #A2DAA4",
"Y  c #A9DBA6",
"T  c #A6D4AA",
"R  c #AAD4AC",
"E  c #A5DAA9",
"W  c #ABD9AB",
"Q  c #A9DBAA",
"!  c #A9DAAB",
"~  c #ABDBAB",
"^  c #A9D9AA",
"/  c #A8DDA9",
"(  c #A9D8AC",
")  c #AADAAB",
"_  c #B0D6AF",
"`  c #ADD2B0",
"'  c #ADD5B0",
"]  c #AED6B3",
"[  c #ADD5B0",
"{  c #AFD9B5",
"}  c #ADDAB1",
"|  c #B0D5B3",
" . c #B1D9B4",
".. c #9DE2A1",
"X. c #A0E0A4",
"o. c #A2E1A4",
"O. c #A6E0AA",
"+. c #C1EABE",
"@. c #BEE3C2",
"#. c #BFE5C0",
"$. c #BFE7C2",
"%. c #BEE4C2",
"&. c #BEEBC2",
"*. c #BFECC3",
"=. c #BFEAC4",
"-. c #C0E3C3",
";. c #C2E3C4",
":. c #C4E1C5",
">. c #C5E3C7",
",. c #C5E2C6",
"<. c #C6E3C7",
"1. c #C0E5C4",
"2. c #C3E4C5",
"3. c #C2E7C5",
"4. c #C3E4C7",
"5. c #C3E6C6",
"6. c #C6E5C6",
"7. c #C7E4C6",
"8. c #C4E7C7",
"9. c #C5E6C7",
"0. c #C4E5C5",
"q. c #C8E5C7",
"w. c #C9E5C7",
"e. c #C0E8C5",
"r. c #C3EBC6",
"t. c #C3E8C6",
"y. c #C4E9C7",
"u. c #C6E8C7",
"i. c #C4EAC5",
"p. c #C4ECC7",
"a. c #C4E9C6",
"s. c #C5E3C9",
"d. c #C7E4C8",
"f. c #C5E6C9",
"g. c #C6E7C8",
"h. c #C6E7CA",
"j. c #C6E7CC",
"k. c #C6E6CA",
"l. c #C8E5C9",
"z. c #C8E7C8",
"x. c #C9E6C8",
"c. c #C8E4CB",
"v. c #C8E6CA",
"b. c #C9E6CA",
"n. c #C9E7CB",
"m. c #CAE7CB",
"M. c #C9E5CC",
"N. c #C8E6CC",
"B. c #C9E7CD",
"V. c #CAE6CD",
"C. c #CBE7CE",
"Z. c #C8E6CA",
"A. c #C6E9C9",
"S. c #C5EAC8",
"D. c #C6EBC9",
"F. c #C5E8CA",
"G. c #C7E8CB",
"H. c #C7EACA",
"J. c #C5E8C8",
"K. c #C7EACC",
"L. c #C6E9C9",
"P. c #C9E8C9",
"I. c #CBE9CA",
"U. c #C8EBCB",
"Y. c #C9EACB",
"T. c #C8E9CC",
"R. c #CBE8CC",
"E. c #CBE9CD",
"W. c #CAEBCC",
"Q. c #CCE9CD",
"!. c #CCE8CF",
"~. c #CDEACE",
"^. c #C9EACB",
"/. c #CBF1CB",
"(. c #CFEBD2",
/* pixels */
"M.M.M.j.F.F.h.h.q.U.v.v.v.R.4.F.4.F.#.( R R P E P E P Q P P R T T ( T P Q P R I T R P Q P P ( *.e.i.U.;.M.W.,.v.v.v.i.i.h.h.v.v.",
"M.M.M.j.h.F.h.h.v.q.,.,.v.U.4.6.F.i.p.( P ( E P E U G P R P R R E T T E P P P Q Q P P Q T T T &.e.i.6.4.M.M.v.W.v.v.i.i.h.h.v.v.",
"M.M.M.j.h.h.h.h.v.v.W.R.v.h.R.U.F.K ( I P P P U H E / G E P P T T P P E G / / G G G U P P T T R R 4.U.h.d.M.v.,.q.q.i.i.h.h.v.M.",
"M.M.M.M.h.h.h.v.h.v.W.v.h.4.K.@.p.( R P E G U H H V V H U U P Q Q P P U H H V H H o.H U U R T T R #.F.F.,.M.(.R.q.q.i.i.h.h.M.M.",
"v.v.v.v.h.h.v.v.v.v.v.,.U.F.F.] R P P P N f s i d i i s g H U N G U G g i i i a u i i V U P T R ( ( R 6.v.,.,.v.v.v.h.6.v.v.M.M.",
"v.v.v.v.h.h.v.v.v.W.v.6.R.-.4.R T E U V H i 7 w q r w i i V X.U Y U H i u q a 9 r a i V H / P R T I R e.h.R.h.v.v.v.h.h.v.v.M.M.",
"v.v.v.v.M.M.M.M.,.v.U.6.F.` { T P U N i d r a r r e q x w i i M M s i w a 9 e k e r q d f N P P P T T ] L 6.v.v.v.v.h.h.v.v.M.M.",
"v.v.v.v.M.M.M.M.v.U.6.6.D.K R E U V X.w w r 0 0 0 k 0 9 r a i S S i a r 9 e k 6 e e r w i H H U U P T ( R F.h.h.v.v.h.h.v.v.M.M.",
"v.R.v.h.M.M.h.M.v.6.U.;.p.( P E H w i r r e 6 0 6 k 0 0 r r w a a q r r 6 0 k 6 0 6 r q a i i H U U P T ( #.F.F.U.4.U.F.h.v.M.M.",
"v.v.v.h.M.M.h.v.W.;.;.R T P / H B d q 9 e 0 j 6 6 6 6 0 0 e q r r e e 0 0 0 0 6 0 0 e e q q h B V N G E } e.D.4.6.4.F.h.,.,.d.M.",
"v.v.v.v.K.j.h.h.;.;./.} P H H s d q r l e o : : , : : o # e r e e j e < o : > < o o o e x r q a d H Y P P R ` D.U.F.6.F.R.R.M.M.",
"v.6.v.v.j.j.F.F.U.| R v U U H i r e e 0 0 o : o o : : o o e 0 0 6 6 0 o o : o o o o # e e e r r w M V U ( T K F.@.F.4.4.F.R.h.d.",
"v.6.R.R.h.h.K.F.4.I P E H i i q r l e o < . < : : o : , o < # 0 0 : , o , : o : < < o # # e l e r d h N U Q R R | F.F.F.4.h.M.M.",
"6.6.R.F.4.F.F.@.e.( P U o.i w a e 6 e < o . # : < < o : o o o 0 0 o o o : o < < : o o X < 0 0 e q w s H U P I ( R ;.-.D.6.F.R.M.",
"v.6.F.h.4.K.h. .R R Q N V w r e e # < o < < < # X < o o < < : : # o < : o : : . : : < < o o # e e a i V U U P ( R  .` i.4.F.v.,.",
"v.h.h.h.4.U.4.R R P U V D w r e 0 o o < # # & $ & $ $ $ $ # < o o < # $ $ $ $ & $ & $ # < o o 0 e q w D V U Q T R R L D.6.6.F.v.",
"v.v.h.h.F.R ( P U V V d q r e # : o < & @ S V U H H U Z V = $ # # $ = V U U H H H V ..% & < o > o e r q d V H U P R R F.F.h.h.j.",
"v.v.h.F.F.R R P U H S r q l k o , < . $ * H U P U P P P Z * & # # & * U P P P U P U H - & X > > o l l q w V H U P R R i.F.h.j.j.",
"M.M.h.F.F.R R P U s i r e X . < # # 4 n V U N E U G U U U b ..& $ D M U U U G U U N U H B 4 o o < X X r r i s U P T R i.F.h.M.M.",
"M.v.v.i.F.R T P H s i r e < : < # $ @ b O.P U U H U U V V X.M % % n X.V H U U V U U P O.M % $ o < # < e w i f H P T R F.F.h.M.M.",
"v.v.v.i.F.R T H H i w r e o o < 2 S V U N N U i i i w i s V X.V V X.V s i i i i i U G G Y V S 2 < o o e r w i H H T I p.F.h.M.M.",
"v.v.v.i.F.I E H V i r e e < o o + ..U C Y U o.i a w a a i S V V V m S u a a w a u ..U / P U ..+ # o < e r w i H H E I p.F.v.M.M.",
"b.v.v.i.p.I E H H i w e 0 : o < = V P P C y i u q r e 9 r d i V V w d u q r r 9 r i y P P P V = < o o e r w i H H E R p.F.v.M.M.",
"b.v.v.i.p.I T H V i r e 0 > : # % H Y C U s a r r 9 0 r e 9 d V m r q r a e 9 e e a s U P Y V @ o : < e e a i H H E R p.F.v.M.M.",
"b.v.q.U.p.I P E H w r r 0 o : o % V C Y U i r e e o O < o e r w q r r # < O o 0 e r i U Q C V @ o : o e 9 a s H H E R e.R.h.v.M.",
"v.R.6.6.e.( T H H f a q 0 o > < % H U U H u p e 0 > O o o k r r e e k # X O > 0 e p i H U U V @ < o o e r w i H H E ( e.K.v.W.!.",
"v.W.v.h.e.( R P N s w 9 x o o o @ V H V H i p e 0 o O > o o < e e < # X # O o 0 e p i H G U m $ o > < 0 q a i H P T ( e.h.d.M.,.",
"v.v.v.R.4.K I E E H ..r e X o < @ D V H H f q r 0 < > > > o : 0 0 : o < # > < 0 r q f H U V D # < . o r q d f H E T ] F.K.4.M.h.",
"h.h.h.R.4.` ] T E N V w r < X # # $ ; H H / o.i r 0 0   o < : : : : < X o 0 0 e w ../ G H ; $ o : < < e a B H P T I L 6.R.h.F.h.",
"h.M.h.h.F.-.#.T T G o.d q $ # # < $ % H G P c h a e e < < o : : : : o < < e 0 r h c P G H % # < . . # q w V U E T ] | 4.F.h.h.h.",
"j.R.j.h.R.U.F.R T / N s a e e # . # & U Q ~ Q G S r 0 0 0 < . : : o < e 0 e r S V Q } ( E % # . , 0 e a w H U T R e.-.U.R.R.h.h.",
"M.j.h.h.R.h.h.R R Q H H B r r # # 1 & B U P P U H u r e r # # : : : # e e r u H U T T U B & < : # e e w s H G ( R D.F.6.h.F.h.h.",
"v.R.v.h.F.R.@.| I Q U N ..w q $ # 1 X $ ; H H N U N U s q 0 0 : < 0 0 0 a S N E P U V @ & # # # # r w S H U P ( R F.6.4.U.6.U.6.",
"q.v.v.h.F.R.F.;.D.T P U V i a & # o < # $ n V O.P U P y i r k : o e e w i G U P U V A < o o # # & a i M H E T R R D.K.F.U.6.v.6.",
"v.v.v.h.h.F.R.F.F.I P U U s i q e o o < # @ % V H U / U V w r e 0 0 w V E ( T P V = $ # < < < e q q w ..U E R R L 4.h.h.U.6.U.U.",
"v.v.v.v.h.h.h.h.F.R ~ P H V S r 0 < < o < $ % D V Y N U H i s a r r s U T P / V S 3 X o X # # e a a s H N P R R | 4.h.h.U.6.U.U.",
"v.v.M.M.R.j.h.F.U.R J P U N ..d e 0 0 o o # # @ % V U N U U H t w V E R K ( H % # o < < < l 0 r w S M U U Q R ;.-.U.R.h.U.v.q.q.",
"v.v.h.h.j.j.h.F.-./.e.T U U H 8 q e 0 < , . < $ = B V O.N U P g g H T P } G B 3 < : . o < e 0 r q ..H H P P R 6.F.U.F.h.U.v.q.q.",
"v.v.M.h.h.h.h.h.U.6.e.~ P U U s i r r 6 e : . # X = * N U U E P P E T E G * & . o < < e 0 r 0 r h V H / P R ] 6.6.h.h.h.v.v.q.v.",
",.v.R.M.j.K.M.M.h.F.i.R I P U U V w q r 6 : , : # 2 @ D V U P P P P U V ..$ < : , . X l r r r w s U P P R R L h.F.h.R.v.v.h.6.v.",
"v.v.M.M.j.j.M.M.v.U.i.R } T P P H t d a r 6 j : o 2 # @ ; H H G P U V @ $ < o : < 6 e e r q i ..H U U P R i.i.6.v.v.v.v.v.v.v.v.",
"v.v.M.M.j.j.M.M.h.v.W.;.;.R I E U H H w q z 6 : : o < $ @ n V O.U V V 2 o : : : # 0 0 6 r d s H G P P R _ i.i.U.v.v.v.v.v.v.v.v.",
"v.v.v.v.j.j.M.M.R.h.U.U.i.R ( I E U H f i a r e j . o < # @ @ B B = $ o < : < e e 0 k 0 q V P T T ( R I L 6.W.6.v.v.h.h.v.v.v.v.",
"v.v.v.v.j.j.M.M.v.v.6.6.U.;.e.( R G / U M i 9 e 6 < < o < $ & S A 3 X o . o # e e l 0 e d V T I R T R R R 4.U.,.v.v.h.h.v.v.v.v.",
"v.v.v.v.h.h.M.M.,.W.v.v.U.U.D.K T Q P G N g h r e e e o o < # X # X < < < l e r r r q B V U ( ] ( P ( e.F.F.v.W.M.M.j.j.h.h.v.v.",
"v.v.v.v.h.h.M.M.v.R.U.U.4.4.6.R R Q P T / H V i q e 0 < , . < # < < . # < e 0 r q w s U U G ( F I T ] e.U.6.;.h.M.M.j.j.h.h.v.v.",
"q.q.v.v.h.h.h.h.v.h.h.U.6.F.U.e.+.T T Q P E H s a r e 6 0 o . # o < < e 0 l 0 r d o.G T ( T U / ( *.e.i.F.W.W.v.M.M.j.j.h.h.h.h.",
"q.q.q.v.h.h.h.h.R.h.v.v.6.F.6.e.e.R R T T P H H V w q e 0 o < < < X X l e e r w i H ( R R R U P I D.i.F.h.v.h.v.M.M.j.j.h.h.h.h.",
"v.v.v.v.v.v.v.v.v.v.v.v.v.v.h.h.;.;.D.R ( T G U V s i w r e e o < 0 e e r w d ..H U T T R ( R e.i.h.6.h.v.v.v.v.v.v.v.v.v.v.v.v.",
"v.v.v.v.v.v.v.v.v.v.v.v.v.v.v.v.R.U.D.R ( R E P O.V V d 9 r 0 < o 0 e 9 d d y U G P E ( I R R i.h.v.v.v.v.v.v.v.v.v.v.v.v.v.v.v.",
"v.v.v.v.v.v.v.v.v.v.v.v.v.v.v.v.6.6.-.R ( I E E G H H d w x r 5 e e r q w V U U E E P T ] e.i.F.h.v.v.v.v.v.v.v.v.v.v.v.v.v.v.v.",
"v.v.v.v.v.v.v.v.v.v.v.v.v.v.v.v.v.U.U.F.=.( T P U / N i w r r e e r q r s V G P P E T R R e.F.6.v.v.v.v.v.v.v.v.v.v.v.v.v.v.v.v.",
"v.v.v.v.v.v.v.v.v.v.v.v.v.v.v.v.v.6.4.F.e.] ( P P U U H B a q a r r w V V U U Q T I ( =.i.i.6.U.v.v.v.v.v.v.v.v.v.v.v.v.v.v.v.v.",
"v.v.v.v.v.v.v.v.v.v.v.v.v.v.v.v.R.R.6.6.F.$.#.} ( P P Y V i i w w w i X.V N Q v I R ' $.U.U.6.6.v.v.v.v.v.v.v.v.v.v.v.v.v.v.v.v.",
"v.v.v.v.v.v.v.v.v.v.v.v.v.v.v.v.,.v.v.U.F.F.#.R R T Q P U H V i s X.V H U P T  .( e.D.F.;.h.v.W.v.v.v.v.v.v.v.v.v.v.v.v.v.v.v.v.",
"v.v.v.v.v.v.v.v.v.v.v.v.v.v.v.v.b.v.v.v.4.F.U.F.e.I R P U U V f s H U P P R ( K R F.e.F.v.v.v.v.v.v.v.v.v.v.v.v.v.v.v.v.v.v.v.v.",
"v.v.v.v.v.v.v.v.v.v.v.v.v.v.v.v.v.v.v.v.h.h.h.i.i.R ( I P P U H H U U P I ( R i.F.F.F.j.v.v.v.v.v.v.v.v.v.v.v.v.v.v.v.v.v.v.v.v.",
"v.v.v.v.v.v.v.v.v.v.v.v.v.v.v.v.v.v.v.v.h.h.h.h.6.R R R Q E P P P P E ( R R L 6.h.h.j.M.v.v.v.v.v.v.v.v.v.v.v.v.v.v.v.v.v.v.v.v.",
"v.v.v.v.v.v.v.v.v.v.v.v.v.v.v.v.b.b.v.v.j.h.v.v.U.F.6.] I T R Q E E T I ] 6.F.U.v.M.M.M.v.v.v.v.v.v.v.v.v.v.v.v.v.v.v.v.v.v.v.v.",
"v.v.v.v.v.v.v.v.v.v.v.v.v.v.v.v.v.v.v.v.j.j.v.v.h.U.6.` R R ( T T R R R ` 6.U.h.M.M.M.M.v.v.v.v.v.v.v.v.v.v.v.v.v.v.v.v.v.v.v.v.",
"v.v.v.v.v.v.v.v.v.v.v.v.v.v.v.v.v.v.v.v.h.h.M.v.M.6.v.i.e.R R ( ( I R e.i.h.h.R.M.M.v.v.v.v.v.v.v.v.v.v.v.v.v.v.v.v.v.v.v.v.v.v.",
"v.v.v.v.v.v.v.v.v.v.v.v.v.v.v.v.v.v.v.v.j.h.M.M.,.d.R.U.4.R R R I R R ;.U.U.h.,.M.M.v.v.v.v.v.v.v.v.v.v.v.v.v.v.v.v.v.v.v.v.v.v.",
"v.v.v.v.v.v.v.v.v.v.v.v.v.v.v.v.v.v.v.h.j.j.M.M.M.v.6.;.F.p.e.( ( e.i.i.;.6.v.R.v.v.h.h.v.v.v.v.v.v.v.v.v.v.v.v.v.v.v.v.v.v.v.v.",
"v.v.v.v.v.v.v.v.v.v.v.v.v.v.v.v.v.v.h.h.j.j.M.M.v.v.v.h.F.e.e.R R e.e.i.h.v.v.v.v.v.h.h.v.v.v.v.v.v.v.v.v.v.v.v.v.v.v.v.v.v.v.v."
};
