/* XPM */
static char *_d1bc120832a49b38e585aa3f98e4b4eI1LqgI40YCWmAbDy[] = {
/* columns rows colors chars-per-pixel */
"64 64 195 2 ",
"   c #000502",
".  c #000A02",
"X  c #03050C",
"o  c #010A0B",
"O  c #0C0B0B",
"+  c #021103",
"@  c #03140C",
"#  c #081909",
"$  c #051607",
"%  c #121407",
"&  c #030512",
"*  c #080615",
"=  c #020A12",
"-  c #0A0B12",
";  c #0D0C19",
":  c #130D19",
">  c #091312",
",  c #0B1B12",
"<  c #071311",
"1  c #121315",
"2  c #181816",
"3  c #131218",
"4  c #0E0F23",
"5  c #1D1C26",
"6  c #192123",
"7  c #27233B",
"8  c #292A3F",
"9  c #2A263D",
"0  c #312C3E",
"q  c #331F54",
"w  c #292544",
"e  c #2D2A44",
"r  c #2D254C",
"t  c #2E2A4A",
"y  c #312744",
"u  c #312C44",
"i  c #31264B",
"p  c #322C4B",
"a  c #353047",
"s  c #32314B",
"d  c #39304B",
"f  c #2D2454",
"g  c #2F2854",
"h  c #2E255B",
"j  c #302554",
"k  c #322A52",
"l  c #32245B",
"z  c #33295C",
"x  c #3B2D58",
"c  c #333151",
"v  c #39325C",
"b  c #331E6B",
"n  c #2E2161",
"m  c #322364",
"M  c #3C2760",
"N  c #312963",
"B  c #342068",
"V  c #3D2D6E",
"C  c #7A7C53",
"Z  c #7C765C",
"A  c #7C7A5B",
"S  c #79755A",
"D  c #6D776F",
"F  c #767463",
"G  c #7A7766",
"H  c #7C7A63",
"J  c #77726F",
"K  c #7B766D",
"L  c #77796A",
"P  c #7C7A6C",
"I  c #6F6F74",
"U  c #6B6C7E",
"Y  c #756D7B",
"T  c #6D7475",
"R  c #6F7A74",
"E  c #6F7478",
"W  c #6F7A7A",
"Q  c #737573",
"!  c #7A7474",
"~  c #737A75",
"^  c #7B7A75",
"/  c #75757B",
"(  c #7A757B",
")  c #757A7B",
"_  c #7A7B7C",
"`  c #807E57",
"'  c #827C5B",
"]  c #837E65",
"[  c #837C6E",
"{  c #807778",
"}  c #817C79",
"|  c #748177",
" . c #75807B",
".. c #7C827D",
"X. c #84805A",
"o. c #808366",
"O. c #6F6C89",
"+. c #756687",
"@. c #736F83",
"#. c #736D8D",
"$. c #796C80",
"%. c #6F7784",
"&. c #757483",
"*. c #7B7483",
"=. c #767A83",
"-. c #7B7B83",
";. c #75748B",
":. c #79748C",
">. c #75788C",
",. c #7B7B8B",
"<. c #746E93",
"1. c #7A6E94",
"2. c #756C99",
"3. c #796F9E",
"4. c #757293",
"5. c #7A7393",
"6. c #7D7994",
"7. c #76739A",
"8. c #7A739B",
"9. c #7D799B",
"0. c #766DA2",
"q. c #7A6EA6",
"w. c #766EA9",
"e. c #796EAB",
"r. c #7770A3",
"t. c #7C72A3",
"y. c #7C72AA",
"u. c #7C71B3",
"i. c #817B84",
"p. c #82768C",
"a. c #807A88",
"s. c #827793",
"d. c #807B91",
"f. c #768082",
"g. c #788082",
"h. c #E6EB87",
"j. c #E9EC85",
"k. c #E2E685",
"l. c #E9E69F",
"z. c #E2E39F",
"x. c #DEDEAA",
"c. c #E0DEAD",
"v. c #C4E7BF",
"b. c #CBE4BE",
"n. c #E4E3A3",
"m. c #E3E3AD",
"M. c #EBEBAE",
"N. c #E2E3B3",
"B. c #E9E6BB",
"V. c #BCDDC0",
"C. c #C6DDC4",
"Z. c #C6DFC9",
"A. c #CADECD",
"S. c #CDDED2",
"D. c #CCDDDC",
"F. c #D1DFD2",
"G. c #D2DFD8",
"H. c #C4E4C5",
"J. c #C9E5C6",
"K. c #C6E9C6",
"L. c #CAE9C5",
"P. c #C6E5CA",
"I. c #C9E5CD",
"U. c #CCE5CE",
"Y. c #C8E6CA",
"T. c #C5E8CA",
"R. c #C4E9CA",
"E. c #C7E8CB",
"W. c #C7E8C9",
"Q. c #C7E8CB",
"!. c #C9EACD",
"~. c #C9E9CE",
"^. c #CBEACC",
"/. c #D2E3CC",
"(. c #D1E4C6",
"). c #CEF0CF",
"_. c #C6E6D2",
"`. c #CBE2D1",
"'. c #CEE2D1",
"]. c #CEE6D1",
"[. c #CCE3D3",
"{. c #CDE9D1",
"}. c #CBEAD2",
"|. c #CBE3DA",
" X c #CFECDA",
".X c #D1E0D3",
"XX c #D1E3D6",
"oX c #D2E6D6",
"OX c #D2E5D3",
"+X c #D1EAD4",
"@X c #D3E2D9",
"#X c #D2EADB",
"$X c #CFF0D3",
"%X c #CFDEE1",
"&X c #EBFFEE",
/* pixels */
"Y.Y.Y.Y.Y.Y.Y.Y.Y.Y.Y.Y.Y.Y.Y.Y.I.I.I.I.Y.Y.Y.Y.!.E.T.E.Y.{.I.I.!.H.P.!.T.T.^.W.Y.Y.Y.Y.Y.Y.Y.Y.Y.Y.Y.Y.Y.Y.Y.Y.Y.Y.Y.Y.Y.Y.Y.Y.",
"Y.Y.Y.Y.Y.Y.Y.Y.Y.Y.Y.Y.Y.Y.Y.Y.I.I.I.I.Y.Y.Y.Y.T.T.T.T.I.U.U.&XT.!.!.V.T.!.H.^.Y.Y.Y.Y.Y.Y.Y.Y.Y.Y.Y.Y.Y.Y.Y.Y.Y.Y.Y.Y.Y.Y.Y.Y.",
"Y.Y.Y.Y.Y.Y.Y.Y.Y.Y.Y.Y.Y.Y.Y.Y.E.E.I.I.Y.Y.W.W.E.!.!.P.{.P.+X$ T.T.T.!.{.H.T.!.W.W.Y.Y.Y.Y.Y.Y.Y.Y.Y.Y.Y.Y.Y.Y.Y.Y.Y.Y.Y.Y.Y.Y.",
"Y.Y.Y.Y.Y.Y.Y.Y.Y.Y.Y.Y.Y.Y.Y.Y.E.E.I.Y.Y.Y.W.W.T.T.H.{.Z.U.U.. ].Y.Y.Y.I.I.T.T.W.T.Y.Y.Y.Y.Y.Y.Y.Y.Y.Y.Y.Y.Y.Y.Y.Y.Y.Y.Y.Y.Y.Y.",
"Y.Y.Y.Y.Y.Y.Y.Y.Y.Y.Y.Y.Y.Y.Y.Y.E.E.Y.Y.Y.Y.Y.W.!.!.{.I.+XA.A.+ U.I.+XI.P.{.T.E.E.E.T.T.T.T.Y.Y.Y.Y.Y.Y.Y.Y.Y.Y.Y.Y.Y.Y.Y.Y.Y.Y.",
"Y.Y.Y.Y.Y.Y.Y.Y.Y.Y.Y.Y.Y.Y.Y.Y.E.T.Y.Y.Y.Y.Y.Y.T.T.T.P.U.'.oX. # OXA.].].Y.!.H.E.E.T.T.T.T.Y.Y.Y.Y.Y.Y.Y.Y.Y.Y.Y.Y.Y.Y.Y.Y.Y.Y.",
"Y.Y.Y.Y.Y.Y.Y.Y.Y.Y.Y.Y.Y.Y.Y.Y.T.T.T.T.Y.Y.T.T.!.H.!.{.U.'.A.+ ~   F.S.].P.!.!.E.E.E.T.T.Y.Y.Y.Y.Y.Y.Y.Y.Y.Y.Y.Y.Y.Y.Y.Y.Y.Y.Y.",
"Y.Y.Y.Y.Y.Y.Y.Y.Y.Y.Y.Y.Y.Y.Y.Y.T.T.T.T.Y.Y.T.T.T.I.I.U.U.XX. . ~ ~ @ S.'.].E.Q.E.E.E.E.T.Y.Y.Y.Y.Y.Y.Y.Y.Y.Y.Y.Y.Y.Y.Y.Y.Y.Y.Y.",
"Y.Y.Y.Y.Y.Y.Y.Y.Y.Y.Y.Y.Y.Y.Y.Y.T.T.W.W.Y.Y.Y.Y.Y.!.I.'.[.  ~ . ~ ) ~   OX`.I.Q.E.E.E.E.Y.Y.Y.Y.Y.Y.Y.Y.Y.Y.Y.Y.Y.Y.Y.Y.Y.Y.Y.Y.",
"Y.Y.Y.Y.Y.Y.Y.Y.Y.Y.Y.Y.Y.Y.Y.Y.T.T.W.W.Y.Y.Y.Y.I.I.U.].  ~ )   ( ( Q  .. '.U.I.E.E.E.T.Y.Y.Y.Y.Y.Y.Y.Y.Y.Y.Y.Y.Y.Y.Y.Y.Y.Y.Y.Y.",
"Y.Y.Y.Y.Y.Y.Y.Y.Y.Y.Y.Y.Y.Y.Y.Y.T.T.W.W.Y.Y.Y.Y.I.U.`..  .~ ~ _ _ ( ( ~ R . ].I.I.E.T.T.Y.Y.Y.Y.Y.Y.Y.Y.Y.Y.Y.Y.Y.Y.Y.Y.Y.Y.Y.Y.",
"Y.Y.Y.Y.Y.Y.Y.Y.Y.Y.Y.Y.Y.Y.Y.Y.T.T.Y.Y.Y.Y.Y.I.{.Z.oX  . ) Q -.( I ( ~   + oXP.I.I.Y.T.Y.Y.Y.Y.Y.Y.Y.Y.Y.Y.Y.Y.Y.Y.Y.Y.Y.Y.Y.Y.",
"Y.Y.Y.Y.Y.Y.Y.Y.Y.Y.Y.Y.Y.Y.Y.Y.Y.Y.Y.Y.Y.Y.Y.I.Z.`.S.+ T O -.( ( i./ X  .  S.].I.I.Y.T.Y.Y.Y.Y.Y.Y.Y.Y.Y.Y.Y.Y.Y.Y.Y.Y.Y.Y.Y.Y.",
"Y.Y.Y.Y.Y.Y.Y.Y.Y.Y.Y.Y.Y.Y.Y.Y.Y.Y.Y.Y.Y.Y.Y.I.].`.XX, W ) 5 Y ( / 3 T ~ . XX'.U.I.Y.Y.Y.Y.Y.Y.Y.Y.Y.Y.Y.Y.Y.Y.Y.Y.Y.Y.Y.Y.Y.Y.",
"Y.Y.Y.Y.Y.Y.Y.Y.Y.Y.Y.Y.Y.Y.Y.Y.I.I.Y.Y.Y.Y.I.I.I.`., . =._ / : -.- / ) ..  + A.U.I.Y.Y.Y.Y.T.T.Y.Y.Y.Y.Y.Y.Y.Y.Y.Y.Y.Y.Y.Y.Y.Y.",
"Y.Y.Y.Y.Y.Y.Y.Y.Y.Y.Y.Y.Y.Y.Y.I.I.I.Y.Y.Y.Y.I.U.S.. ~   _ / &.*.X / ) _ Q   R . '.U.U.I.I.Y.T.T.Y.Y.Y.Y.Y.Y.Y.Y.Y.Y.Y.Y.Y.Y.Y.Y.",
"Y.Y.Y.Y.Y.Y.Y.Y.Y.Y.Y.Y.Y.Y.Y.I.}.P.T.L.L.^.'.S.  ) ~   / / _ -.&./ ) ) =.  R ^ . @X'.U.U.!.W.W.Y.Y.Y.Y.Y.Y.Y.Y.Y.Y.Y.Y.Y.Y.Y.Y.",
"Y.Y.Y.Y.Y.Y.Y.Y.Y.Y.Y.Y.Y.Y.Y.I.P.}.E.L.L.J.oX@ -.I _ ^ O -._ / X -./ ) X ) _ ~ ~ . OXOX].P.H.K.Y.Y.Y.Y.Y.Y.Y.Y.Y.Y.Y.Y.Y.Y.Y.Y.",
"Y.Y.Y.Y.Y.Y.Y.Y.Y.Y.Y.Y.Y.Y.Y.I.}.H.W.W.W.U.. W =./ Q ^ Q O _ ) &./ ) - ) =.T ~ ~ ..  XXU.I.T.!.Y.Y.Y.Y.Y.Y.Y.Y.Y.Y.Y.Y.Y.Y.Y.Y.",
"Y.Y.Y.Y.Y.Y.Y.Y.Y.Y.Y.Y.Y.Y.Y.Y.H.E.^.^.^..  .~ E -.^ Q _ ( X =.5 -.  _ _ ~ ) ) ) D  .  U.P.$XV.Y.Y.Y.Y.Y.Y.Y.Y.Y.Y.Y.Y.Y.Y.Y.Y.",
"Y.Y.Y.Y.Y.Y.Y.Y.Y.Y.Y.Y.Y.Y.Y.Y.^.W.Y.H.Z.. < ~ ) _ Q _ Q ( /   / - -./ Q Q ) ) ~ ~ > . ].^.P.}.Y.Y.Y.Y.Y.Y.Y.Y.Y.Y.Y.Y.Y.Y.Y.Y.",
"Y.Y.Y.Y.Y.Y.Y.Y.Y.Y.Y.Y.Y.Y.Y.Y.H.W.^.I.#X@ W > / / ( ( Q ^ _ ) 1 / / _ ~ _ ) ) ~ . ~   OXY.H.E.I.Y.Y.Y.Y.Y.Y.Y.Y.Y.Y.Y.Y.Y.Y.Y.",
"Y.Y.Y.Y.Y.Y.Y.Y.Y.Y.Y.Y.Y.Y.Y.Y.W.^.W.^.A.. ~ )   -./ / ^ Q _ Q Q / -._ Q Q _ / 1 Q ~ @ U.I.}.}.I.Y.Y.Y.Y.Y.Y.Y.Y.Y.Y.Y.Y.Y.Y.Y.",
"Y.Y.Y.Y.Y.Y.Y.Y.Y.Y.Y.Y.Y.Y.Y.Y.^.W.Y.U.'.. f./ / X / ( ^ ^ Q ^ ~ Q / _ ( _ Q 1 ) )  .  A.+XP.E.I.Y.Y.Y.Y.Y.Y.Y.Y.Y.Y.Y.Y.Y.Y.Y.",
"Y.Y.Y.Y.Y.Y.Y.Y.Y.Y.Y.Y.Y.Y.Y.Y.^.H.{.H.oX. ) =./ -.O ( ^ Q ~ ~ ^ Q _ / _ ( 2 / / =.Q . A.U.I.T.Y.Y.Y.Y.Y.Y.Y.Y.Y.Y.Y.Y.Y.Y.Y.Y.",
"Y.Y.Y.Y.Y.Y.Y.Y.Y.Y.Y.Y.Y.Y.Y.Y.Y.T.^.U.U.. T -.*.*.( O Q ..~ ) _ Q _ / _ X Q -.*.,.T . U.U.P.T.Y.Y.Y.Y.Y.Y.Y.Y.Y.Y.Y.Y.Y.Y.Y.Y.",
"Y.Y.Y.Y.Y.Y.Y.Y.Y.Y.Y.Y.Y.Y.Y.Y.}.T.P.{.A.  -.&.@.i.K P O Q ) Q Q ~ ) -.; -._ / ;.@.=.  U.Y.H.!.Y.Y.Y.Y.Y.Y.Y.Y.Y.Y.Y.Y.Y.Y.Y.Y.",
"Y.Y.Y.Y.Y.Y.Y.Y.Y.Y.Y.Y.Y.Y.Y.Y.T.T.P.].XX  =.u u i.F H K O ) ) _ / -.* :.@.-.&.p p =.. OXU.W.W.Y.Y.Y.Y.Y.Y.Y.Y.Y.Y.Y.Y.Y.Y.Y.Y.",
"Y.Y.Y.Y.Y.Y.Y.Y.Y.Y.Y.Y.Y.Y.Y.Y.T.!.I.I.@Xo &.9 y ( S ` P ( & -._ / * :.:.:.&.6.r p ;.o U.J.E.W.Y.Y.Y.Y.Y.Y.Y.Y.Y.Y.Y.Y.Y.Y.Y.Y.",
"Y.Y.Y.Y.Y.Y.Y.Y.Y.Y.Y.Y.Y.Y.Y.T.^.T.I.`.D.= ;.6.5.( B.x.F i.,.4 / - :.4.;.e p 5.8.8.>.o A.W.^.E.Y.Y.Y.Y.Y.Y.Y.Y.Y.Y.Y.Y.Y.Y.Y.Y.",
"Y.Y.Y.Y.Y.Y.Y.Y.Y.Y.Y.Y.Y.Y.Y.T.W.H.I.#X%XX ;.5.5.! m.M.F / :.6.; ,.O.4.5.p r 8.8.2.4.= oX^.T.H.Y.Y.Y.Y.Y.Y.Y.Y.Y.Y.Y.Y.Y.Y.Y.Y.",
"Y.Y.Y.Y.Y.Y.Y.Y.Y.Y.Y.Y.Y.Y.Y.Y.W.K.E.`.D.& >.i i i.A C ^ 0 e :.,.&.k k &.&.:.:.g z 7.= OXJ.T.Q.Y.Y.Y.Y.Y.Y.Y.Y.Y.Y.Y.Y.Y.Y.Y.Y.",
"Y.Y.Y.Y.Y.Y.Y.Y.Y.Y.Y.Y.Y.Y.Y.Y.L.W.I.`.|.o >.t i :.:.;.;.u e :.& 6.r t ^ A H ! i z 7.& /.J.P._.I.Y.Y.Y.Y.Y.Y.Y.Y.Y.Y.Y.Y.Y.Y.Y.",
"Y.Y.Y.Y.Y.Y.Y.Y.Y.Y.Y.Y.Y.Y.Y.Y.W.^.Y.I.[.o ;.4.5.8.h N 4.;.6.:.-.&.t.5.H N.c.] :.3.4.X /.b.!.E.I.Y.Y.Y.Y.Y.Y.Y.Y.Y.Y.Y.Y.Y.Y.Y.",
"Y.Y.Y.Y.Y.Y.Y.Y.Y.Y.Y.Y.Y.Y.Y.I.I.{.Y.I.[.o ;.4.5.8.n N 4.;.5.5.* &.8.5.F N.N.A :.8.;.  (.b.!.P.E.Y.Y.Y.Y.Y.Y.Y.Y.Y.Y.Y.Y.Y.Y.Y.",
"Y.Y.Y.Y.Y.Y.Y.Y.Y.Y.Y.Y.Y.Y.Y.I.`.I.Y.I.[.o ;.u u 7.e.w.4.u t 5.*.*.g k ^ H A F u k &.. J.L.W.Q.T.Y.Y.Y.Y.Y.Y.Y.Y.Y.Y.Y.Y.Y.Y.Y.",
"Y.Y.Y.Y.Y.Y.Y.Y.Y.Y.Y.Y.Y.Y.Y.I.`.I.Y.I.[.o =.0 u 1.e.w.4.u t 5.& ,.f f 6.&.&.6.h z ;.. U.Y.P.E.T.Y.Y.Y.Y.Y.Y.Y.Y.Y.Y.Y.Y.Y.Y.Y.",
"Y.Y.Y.Y.Y.Y.Y.Y.Y.Y.Y.Y.Y.Y.Y.I.I.{.Y.I.[.o &.*.*.5.h N 4.>.7.:.-.&.r.y.8.t r t.e.0.;.. U.W.E.H.T.Y.Y.Y.Y.Y.Y.Y.Y.Y.Y.Y.Y.Y.Y.Y.",
"Y.Y.Y.Y.Y.Y.Y.Y.Y.Y.Y.Y.Y.Y.Y.Y.W.^.Y.I.'.o &.:.:.5.h N 4.>.6.:.X &.0.u.2.r k 3.e.3./ . U.H.E.H.T.Y.Y.Y.Y.Y.Y.Y.Y.Y.Y.Y.Y.Y.Y.Y.",
"Y.Y.Y.Y.Y.Y.Y.Y.Y.Y.Y.Y.Y.Y.Y.Y.Y.H.Y.I.'.. :.i i 1.e.0.4.u e :.=.&.z n 3.8.<.8.l k / . I.^.W.E.Y.Y.Y.Y.Y.Y.Y.Y.Y.Y.Y.Y.Y.Y.Y.Y.",
"Y.Y.Y.Y.Y.Y.Y.Y.Y.Y.Y.Y.Y.Y.Y.Y.W.Y.T.`.'.  :.i y 8.q.y.8.e e :.* ,.j l 8.6.;.5.j x / . ].`.I.`.I.Y.Y.Y.Y.Y.Y.Y.Y.Y.Y.Y.Y.Y.Y.Y.",
"Y.Y.Y.Y.Y.Y.Y.Y.Y.Y.Y.Y.Y.Y.Y.Y.^.W.!.I.'.. / -.*.:.h h <.6.4.:.-./ *.p.#.i e *.p.Y -.  A.P. X`.I.Y.Y.Y.Y.Y.Y.Y.Y.Y.Y.Y.Y.Y.Y.Y.",
"Y.Y.Y.Y.Y.Y.Y.Y.Y.Y.Y.Y.Y.Y.Y.Y.H.!.Y.I.U.. H H H ! r z 8.;.4.;.X L C A i.u a ! A ' L . U.^.P.P.I.Y.Y.Y.Y.Y.Y.Y.Y.Y.Y.Y.Y.Y.Y.Y.",
"Y.Y.Y.Y.Y.Y.Y.Y.Y.Y.Y.Y.Y.Y.Y.Y.!.T.Y.I.U.. C N.N.H 5.0.4.p t :.( o.n.M.J :.:.! n.n.H . J.^.H.U.Y.Y.Y.Y.Y.Y.Y.Y.Y.Y.Y.Y.Y.Y.Y.Y.",
"Y.Y.Y.Y.Y.Y.Y.Y.Y.Y.Y.Y.Y.Y.Y.Y.^.T.I.I.U.. C N.m.H 6.0.4.p t :.- H z.n.} :.#.^ n.l.S . U.W.^.J.Y.Y.Y.Y.Y.Y.Y.Y.Y.Y.Y.Y.Y.Y.Y.Y.",
"Y.Y.Y.Y.Y.Y.Y.Y.Y.Y.Y.Y.Y.Y.Y.Y.H.!.I.I.U.+ H A A K r z 8.;.4.;.- L X.S *.p t -.Z ` ^ . U.H.U.^.Y.Y.Y.Y.Y.Y.Y.Y.Y.Y.Y.Y.Y.Y.Y.Y.",
"Y.Y.Y.Y.Y.Y.Y.Y.Y.Y.Y.Y.Y.Y.Y.Y.^.W.!.P.OX. / *.*.:.j h <.6.4.:.=./ $.s.1.r p <.M q s.X [.}.H.J.Y.Y.Y.Y.Y.Y.Y.Y.Y.Y.Y.Y.Y.Y.Y.Y.",
"Y.Y.Y.Y.Y.Y.Y.Y.Y.Y.Y.Y.Y.Y.Y.Y.Y.W.W.U.'.  :.i i 8.q.t.8.e t >.= &.z l 2.8.4.8.b B <.X |.H.^.H.Y.Y.Y.Y.Y.Y.Y.Y.Y.Y.Y.Y.Y.Y.Y.Y.",
"Y.Y.Y.Y.Y.Y.Y.Y.Y.Y.Y.Y.Y.Y.Y.Y.^.H.Y.U.'.o >.t p 3.e.t.4.e w ;./ ,.l m 2.8.5.4.5.;.>.o [.E.Y.W.Y.Y.Y.Y.Y.Y.Y.Y.Y.Y.Y.Y.Y.Y.Y.Y.",
"Y.Y.Y.Y.Y.Y.Y.Y.Y.Y.Y.Y.Y.Y.Y.Y.H.L.Y.I.[.o >.4.<.8.h f 8.6.6.;.O &.0.e.8.w s 5.6.,.&.  +XT.!.T.Y.Y.Y.Y.Y.Y.Y.Y.Y.Y.Y.Y.Y.Y.Y.Y.",
"Y.Y.Y.Y.Y.Y.Y.Y.Y.Y.Y.Y.Y.Y.Y.W.v.L.Y.'.'.o ;.4.6.<.j v 4.#.4.>.) / t.0.9.e 7 5.n m :.o I.Y.I.I.I.Y.Y.Y.Y.Y.Y.Y.Y.Y.Y.Y.Y.Y.Y.Y.",
"Y.Y.Y.Y.Y.Y.Y.Y.Y.Y.Y.Y.Y.Y.Y.Y.L.H.I.].'.. ;.e w 6.<.2.7.c w >.& *.j l #.,.,.5.m V &.. U.W.E.E.I.Y.Y.Y.Y.Y.Y.Y.Y.Y.Y.Y.Y.Y.Y.Y.",
"Y.Y.Y.Y.Y.Y.Y.Y.Y.Y.Y.Y.Y.Y.Y.Y.^.T.I.].'.. ;.e e 6.t.3.1.p r 5.:.6.f h 9.;.&.;.1.+.i.  '.I.!.E.Y.Y.Y.Y.Y.Y.Y.Y.Y.Y.Y.Y.Y.Y.Y.Y.",
"Y.Y.Y.Y.Y.Y.Y.Y.Y.Y.Y.Y.Y.Y.Y.Y.T.}.I.'.'.. ;.>.:.5.z l :./ -.&.* ;.y.y.4.8 a *.[ Z [ . '.{.T.H.T.Y.Y.Y.Y.Y.Y.Y.Y.Y.Y.Y.Y.Y.Y.Y.",
"Y.Y.Y.Y.Y.Y.Y.Y.Y.Y.Y.Y.Y.Y.Y.I.E.}.Y.U.S.o >.4.6.7.f x J A A H ( @.y.e.7.s w L k.j.'   OXH.E.!.T.Y.Y.Y.Y.Y.Y.Y.Y.Y.Y.Y.Y.Y.Y.Y.",
"Y.Y.Y.Y.Y.Y.Y.Y.Y.Y.Y.Y.Y.Y.Y.I.}.T.Y.U.S.& >.t p <.q.1.P N.m.C % ,.f f 8.4.4.^ h.j.H X /.Y.T.P.T.Y.Y.Y.Y.Y.Y.Y.Y.Y.Y.Y.Y.Y.Y.Y.",
"Y.Y.Y.Y.Y.Y.Y.Y.Y.Y.Y.Y.Y.Y.Y.I.E.T.^.Y.[.= >.t t 7.0.9.F N.m.C ^ &.r f 4.4.4.:.H Z ( - /.H.Q.}.E.Y.Y.Y.Y.Y.Y.Y.Y.Y.Y.Y.Y.Y.Y.Y.",
"Y.Y.Y.Y.Y.Y.Y.Y.Y.Y.Y.Y.Y.Y.Y.I.E.P.Y.J.S.o %.;.;.4.z i ! H ] G   &.9.8.4.t c 6.*.i./   /.W.E.H.I.Y.Y.Y.Y.Y.Y.Y.Y.Y.Y.Y.Y.Y.Y.Y.",
"Y.Y.Y.Y.Y.Y.Y.Y.Y.Y.Y.Y.Y.Y.Y.I.E.T.Y.I.].$ T =.,.;.g g s.:.*.*.-./ 9.2.<.c w &.( ! _   U.^.H.{.Y.Y.Y.Y.Y.Y.Y.Y.Y.Y.Y.Y.Y.Y.Y.Y.",
"Y.Y.Y.Y.Y.Y.Y.Y.Y.Y.Y.Y.Y.Y.Y.Y.T.!.Y.^.C.. | W E ,.:.5.<.i i 5.X &.g j 9.;.U ,._ Q ~ . I.H.^.H.Y.Y.Y.Y.Y.Y.Y.Y.Y.Y.Y.Y.Y.Y.Y.Y.",
"Y.Y.Y.Y.Y.Y.Y.Y.Y.Y.Y.Y.Y.Y.Y.Y.^.H.H.Y.U.U.. | ) / / -.d.7 d &.) ,.h h 6.-.=.Q ~ ^   OXI.H.^.^.Y.Y.Y.Y.Y.Y.Y.Y.Y.Y.Y.Y.Y.Y.Y.Y.",
"Y.Y.Y.Y.Y.Y.Y.Y.Y.Y.Y.Y.Y.Y.Y.Y.W.^.W.H.I.U.U.. ~ g.Q _ &.*.*.*.O &.2.8.*.I ) ) R + U.P.H.}.U.W.Y.Y.Y.Y.Y.Y.Y.Y.Y.Y.Y.Y.Y.Y.Y.Y.",
"Y.Y.Y.Y.Y.Y.Y.Y.Y.Y.Y.Y.Y.Y.Y.I.E.H.^.H.].]./.A.. ~ ) ) / -.( Q Q ~ a.*.( -./ W $ C.Y.^.}._.W.L.Y.Y.Y.Y.Y.Y.Y.Y.Y.Y.Y.Y.Y.Y.Y.Y.",
"Y.Y.Y.Y.Y.Y.Y.Y.Y.Y.Y.Y.Y.Y.Y.E.E.E.W.L.U.U.U./.G.6 ~ ) / / ! ^ O _ ! { ! ( ) < U.^.H.E._._.U.L.Y.Y.Y.Y.Y.Y.Y.Y.Y.Y.Y.Y.Y.Y.Y.Y."
};
